<svg id="Layer_1" data-name="Layer 1" xmlns="http://www.w3.org/2000/svg" viewBox="0 0 110.6 115.82"><defs><style>.cls-1{fill:#faffc7;}.cls-2{fill:#ffcf34;}.cls-3{fill:#504ecc;}.cls-4{fill:#fff;}</style></defs><polygon id="Hair" class="cls-1" points="98.22 59.74 106.54 40.9 93.37 16.6 66.3 8.94 90.54 41.14 98.22 59.74"/><polygon id="Hair-2" data-name="Hair" class="cls-1" points="14.62 17.83 4.92 37.35 1.96 49.28 0 33.05 7.38 15.83 20.75 9.32 31.37 4.15 55.33 0 69.11 10.21 51.05 5.99 14.62 17.83"/><polygon id="Head" class="cls-2" points="106.54 40.9 104.28 36.39 101.12 40.9 101.12 46.32 99.77 51.28 97.96 53.55 94.8 49.48 90.74 40 87.58 31.43 82.17 18.79 77.15 14.77 57.75 4.04 37.07 6.85 19.71 14.51 9.06 18.34 4.55 25.11 3.19 37.75 0.04 62.57 4.1 88.74 12.22 100.92 24.41 110.4 44.71 115.82 64.12 114.01 80.36 108.14 90.74 95.06 98.86 75.2 99.32 67.53 105.64 65.73 110.15 58.06 110.6 49.03 106.54 40.9"/><polygon id="Eyebrow02" class="cls-3" points="12.67 39.55 28.47 37.3 24.41 34.59 18.54 34.59 12.67 39.55"/><polygon id="Eyebrow" class="cls-3" points="55.54 37.3 73.14 39.1 69.08 35.04 60.51 33.23 55.54 37.3"/><polygon id="Nose" class="cls-4" points="46.09 48.34 51.81 57.13 50.94 70.34 48.74 78.26 42.57 80.89 36.41 77.82 39.93 73.86 39.93 67.69 39.93 60.66 41.69 54.5 43.45 50.54 46.09 48.34"/><polygon id="peterEyebrow" class="cls-3" points="12.45 39.2 28.25 36.94 24.19 34.24 18.32 34.24 12.45 39.2"/><polygon id="peterEyebrow-2" class="cls-3" points="55.32 36.94 72.92 38.75 68.86 34.69 60.29 32.88 55.32 36.94"/><path id="petreMouth" class="cls-3" d="M65.13,128.23l3.2-.7h.3l1.6.5c.4.1.5.5.3.9h0a.85.85,0,0,0,0,.7l.3.4a.61.61,0,0,1,0,.8l-.6.6a.31.31,0,0,1-.2.1l-3.6,1a.44.44,0,0,1-.5-.1l-3.4-2.9.4-.5c.1-.1.2-.2.3-.2Z" transform="translate(-30.23 -40.15)"/><polyline id="peterEye" class="cls-3" points="24.2 43.58 24.3 45.48 22.5 46.18 18.41 46.18 15.71 49.08 14.9 47.68 18 43.98"/><path id="peterEye-2" class="cls-3" d="M99.93,85.63l.3,1.4L98,85.93l-4.1.5-3.2-.1-1.9.5,2.3-2.3,4.5-.9,2.9.6A1.82,1.82,0,0,1,99.93,85.63Z" transform="translate(-30.23 -40.15)"/><polygon class="cls-3" points="11.53 69.58 9.87 55.64 26.15 53.34 27.93 68.48 29.03 73.02 26.84 75.08 23.4 73.87 23.23 70.83 25.3 69.17 24.37 56.78 12.63 58.15 13.47 70.55 14.16 74.68 12.79 76.62 9.87 76.62 7.8 74.27 7.93 71.11 9.75 70.55 11.53 69.58"/></svg>