<svg id="Layer_1" data-name="Layer 1" xmlns="http://www.w3.org/2000/svg" viewBox="0 0 110.6 115.82"><defs><style>.cls-1{fill:#faffc7;}.cls-2{fill:#ffcf34;}.cls-3{fill:#fff;}.cls-4{fill:#504ecc;}</style></defs><polygon id="Hair" class="cls-1" points="98.22 59.74 106.54 40.9 93.37 16.6 66.3 8.94 90.54 41.14 98.22 59.74"/><polygon id="Hair-2" data-name="Hair" class="cls-1" points="14.62 17.83 4.92 37.35 1.96 49.28 0 33.05 7.38 15.83 20.75 9.32 31.37 4.15 55.33 0 69.11 10.21 51.05 5.99 14.62 17.83"/><polygon id="Head" class="cls-2" points="106.54 40.9 104.28 36.39 101.12 40.9 101.12 46.32 99.77 51.28 97.96 53.55 94.8 49.48 90.74 40 87.58 31.43 82.17 18.79 77.15 14.77 57.75 4.04 37.07 6.85 19.71 14.51 9.06 18.34 4.55 25.11 3.19 37.75 0.04 62.57 4.1 88.74 12.22 100.92 24.41 110.4 44.71 115.82 64.12 114.01 80.36 108.14 90.74 95.06 98.86 75.2 99.32 67.53 105.64 65.73 110.15 58.06 110.6 49.03 106.54 40.9"/><polygon id="Nose" class="cls-3" points="46.09 48.34 51.81 57.13 50.94 70.34 48.74 78.26 42.57 80.89 36.41 77.82 39.93 73.86 39.93 67.69 39.93 60.66 41.69 54.5 43.45 50.54 46.09 48.34"/><polygon id="Eyebrow02" class="cls-4" points="13.08 39.74 28.75 37.5 24.72 34.82 18.9 34.82 13.08 39.74"/><polygon id="Eyebrow01" class="cls-4" points="55.6 37.5 73.05 39.29 69.03 35.27 60.52 33.47 55.6 37.5"/><polygon id="dannieMouth" class="cls-4" points="35.68 90.67 40.22 86.3 56.05 87.06 61.04 91.1 61.48 94.14 54.82 97.61 47.25 98.04 36.12 95.42 33.9 92.83 35.68 90.67"/><polygon class="cls-4" points="25.41 44.55 21.84 44.94 19.79 47.11 19.54 49.66 21.07 50.94 23.5 52.34 24.9 54.64 24.39 56.55 22.09 57.32 19.79 56.94 18.26 56.81 18.26 58.09 22.22 58.34 25.79 57.96 25.66 54.64 25.28 52.34 23.62 50.43 22.35 49.66 21.71 48.64 22.6 46.98 24.52 46.47 26.43 45.96 27.45 46.34 27.07 44.55 25.41 44.55"/><polygon class="cls-4" points="20.05 60.13 24.52 40.6 26.18 40.85 21.07 60.51 20.05 60.13"/><polygon class="cls-4" points="65.62 44.17 62.05 44.55 60.01 46.72 59.75 49.28 61.28 50.55 63.71 51.96 65.11 54.26 64.6 56.17 62.3 56.94 60.01 56.55 58.47 56.43 58.47 57.7 62.43 57.96 66 57.57 65.88 54.26 65.5 51.96 63.84 50.04 62.56 49.28 61.92 48.26 62.81 46.6 64.73 46.09 66.64 45.57 67.67 45.96 67.28 44.17 65.62 44.17"/><polygon class="cls-4" points="60.26 59.74 64.73 40.21 66.39 40.47 61.28 60.13 60.26 59.74"/></svg>