<svg id="Layer_1" data-name="Layer 1" xmlns="http://www.w3.org/2000/svg" viewBox="0 0 168.13 179.88"><defs><style>.cls-1{fill:#f3ff7a;}.cls-2{fill:#504ecc;}.cls-3{fill:#68cc4e;}.cls-4{fill:#faffc7;}</style></defs><g id="jensHead"><polygon class="cls-1" points="0 119.23 0.69 68.23 19.45 26.88 40.3 11.03 73.64 0 88.23 1.38 109.77 8.27 141.73 39.28 151.46 66.16 157.01 59.96 164.66 59.96 168.13 78.57 166.05 93.73 163.27 102.69 152.15 105.44 147.98 128.19 129.22 163.34 104.21 176.43 65.31 179.88 33.35 169.54 9.73 149.55 0 119.23"/></g><polygon id="jensEyebrow" class="cls-2" points="20.98 59.37 45.21 55.91 38.98 51.75 29.98 51.75 20.98 59.37"/><polygon id="jensEyebrow-2" data-name="jensEyebrow" class="cls-2" points="86.74 55.91 113.73 58.68 107.5 52.45 94.35 49.68 86.74 55.91"/><polygon id="jensMouth" class="cls-2" points="55.59 142.43 77.05 150.05 89.51 148.66 95.05 143.13 95.74 147.97 85.35 153.51 73.59 154.2 56.28 150.05 52.82 145.9 55.59 142.43"/><polygon id="jensEye" class="cls-2" points="38.28 68.37 42.44 78.06 39.67 87.75 33.44 87.75 29.29 83.6 27.9 73.9 30.67 66.98 38.28 68.37"/><polygon id="jensEye-2" data-name="jensEye" class="cls-2" points="105.43 70.44 106.12 79.44 103.35 84.29 96.43 85.67 91.58 80.13 92.97 71.14 96.43 67.67 103.35 66.29 105.43 70.44"/><g id="jensNose"><polygon class="cls-3" points="72.2 71.83 81.2 85.67 79.82 106.44 76.36 118.9 66.66 123.05 56.97 118.21 62.51 111.98 62.51 102.28 62.51 91.21 65.28 81.52 68.05 75.29 72.2 71.83"/></g><polygon id="jensHead-2" data-name="jensHead" class="cls-4" points="136.43 65.76 148.03 63.83 141.26 35.77 117.79 17.51 132.56 57.06 136.43 65.76"/><polygon id="jensHead-3" data-name="jensHead" class="cls-4" points="25.9 23.44 10.64 54.15 0.97 68.67 2.9 47.38 14.51 20.29 35.54 10.05 52.25 1.91 93.85 0.94 118.04 17.39 83.21 4.81 25.9 23.44"/></svg>