<svg id="Layer_1" data-name="Layer 1" xmlns="http://www.w3.org/2000/svg" viewBox="0 0 118.07 127.1"><defs><style>.cls-1{fill:#ffcf34;}.cls-2{fill:#faffc7;}.cls-3{fill:#fff;}.cls-4{fill:#504ecc;}</style></defs><polygon id="Head" class="cls-1" points="114.01 52.18 111.75 47.67 108.59 52.18 108.59 57.6 107.23 62.57 105.43 64.83 102.27 60.76 98.21 51.28 95.05 42.71 89.64 30.07 84.62 26.05 65.22 15.32 44.54 18.13 27.17 25.79 16.53 29.62 12.02 36.39 10.66 49.03 7.5 73.85 11.56 100.02 19.68 112.21 31.87 121.68 52.18 127.1 71.58 125.29 87.83 119.42 98.21 106.34 106.33 86.48 106.78 78.81 113.1 77.01 117.62 69.34 118.07 60.31 114.01 52.18"/><path id="Hair" class="cls-2" d="M30.79,102.71l4.47-30.87,5.37-10.3,16.56,7.61H79.57l16.11-3.58,15.22-2.69,1.33-3.57,5,14.54,2.2,3.8,1.78,9.4,4,8.5,3.59,8.06L132,92.49l.26-9.19,2.55-5.11-4.23-14L124.77,54l-4.9-1.79.87-4.51-2.24-9.85-1.79-5.37L113.58,41l-6.71-3.14-13-4.48L65.25,31.11l-26-2.24-11.21,4.9,8.06,3.58,2.74,5.84-9.4,4.9-6.72,5.37L25,56.15h6.26A35,35,0,0,1,29,62c-.9,1.34-4,10.29-3.58,12.08s2.22,9.87,3.1,11.66,1.79,15.18,1.79,15.18Z" transform="translate(-22.76 -28.87)"/><polygon id="Nose" class="cls-3" points="53.67 59.08 59.49 68.03 58.59 81.45 56.35 89.51 50.09 92.19 43.82 89.06 47.4 85.03 47.4 78.76 47.4 71.61 49.19 65.34 50.99 61.31 53.67 59.08"/><polygon id="peterEyebrow" class="cls-4" points="19.92 50.48 35.71 48.22 31.65 45.52 25.79 45.52 19.92 50.48"/><polygon id="peterEyebrow-2" class="cls-4" points="62.79 48.22 80.39 50.03 76.33 45.97 67.76 44.16 62.79 48.22"/><path id="petreMouth" class="cls-4" d="M65.13,128.23l3.2-.7h.3l1.6.5c.4.1.5.5.3.9h0a.85.85,0,0,0,0,.7l.3.4a.61.61,0,0,1,0,.8l-.6.6a.31.31,0,0,1-.2.1l-3.6,1a.44.44,0,0,1-.5-.1l-3.4-2.9.4-.5c.1-.1.2-.2.3-.2Z" transform="translate(-22.76 -28.87)"/><polyline id="peterEye" class="cls-4" points="31.67 54.86 31.77 56.76 29.97 57.46 25.87 57.46 23.17 60.36 22.37 58.96 25.47 55.26"/><path id="peterEye-2" class="cls-4" d="M99.93,85.63l.3,1.4L98,85.93l-4.1.5-3.2-.1-1.9.5,2.3-2.3,4.5-.9,2.9.6A1.82,1.82,0,0,1,99.93,85.63Z" transform="translate(-22.76 -28.87)"/><polygon class="cls-4" points="19 80.86 17.34 66.92 33.62 64.62 35.4 79.76 36.49 84.3 34.31 86.36 30.86 85.15 30.7 82.11 32.77 80.45 31.84 68.06 20.09 69.44 20.94 81.83 21.63 85.96 20.25 87.9 17.34 87.9 15.27 85.55 15.39 82.39 17.22 81.83 19 80.86"/></svg>