<svg id="Layer_1" data-name="Layer 1" xmlns="http://www.w3.org/2000/svg" viewBox="0 0 118.07 127.1"><defs><style>.cls-1{fill:#ffcf34;}.cls-2{fill:#5c665a;}.cls-3{fill:#504ecc;}.cls-4{fill:#fff;}</style></defs><polygon id="Head" class="cls-1" points="114.01 52.18 111.75 47.67 108.59 52.18 108.59 57.6 107.23 62.57 105.43 64.83 102.27 60.76 98.21 51.28 95.05 42.71 89.64 30.07 84.62 26.05 65.22 15.32 44.54 18.13 27.17 25.79 16.53 29.62 12.02 36.39 10.66 49.03 7.5 73.85 11.56 100.02 19.68 112.21 31.87 121.68 52.18 127.1 71.58 125.29 87.83 119.42 98.21 106.34 106.33 86.48 106.78 78.81 113.1 77.01 117.62 69.34 118.07 60.31 114.01 52.18"/><path id="Hair" class="cls-2" d="M30.79,102.71l4.47-30.87,5.37-10.3,16.56,7.61H79.57l16.11-3.58,15.22-2.69,1.33-3.57,5,14.54,2.2,3.8,1.78,9.4,4,8.5,3.59,8.06L132,92.49l.26-9.19,2.55-5.11-4.23-14L124.77,54l-4.9-1.79.87-4.51-2.24-9.85-1.79-5.37L113.58,41l-6.71-3.14-13-4.48L65.25,31.11l-26-2.24-11.21,4.9,8.06,3.58,2.74,5.84-9.4,4.9-6.72,5.37L25,56.15h6.26A35,35,0,0,1,29,62c-.9,1.34-4,10.29-3.58,12.08s2.22,9.87,3.1,11.66,1.79,15.18,1.79,15.18Z" transform="translate(-22.76 -28.87)"/><polygon id="Eyebrow02" class="cls-3" points="20.55 51.02 36.22 48.78 32.19 46.1 26.37 46.1 20.55 51.02"/><polygon id="Eyebrow01" class="cls-3" points="63.07 48.78 80.52 50.57 76.49 46.55 67.99 44.75 63.07 48.78"/><polygon id="Nose" class="cls-4" points="53.67 59.08 59.49 68.03 58.59 81.45 56.35 89.51 50.09 92.19 43.82 89.06 47.4 85.03 47.4 78.76 47.4 71.61 49.19 65.34 50.99 61.31 53.67 59.08"/><polygon id="dannieMouth" class="cls-3" points="43.15 101.95 47.69 97.58 63.52 98.34 68.51 102.38 68.95 105.42 62.28 108.89 54.72 109.32 43.59 106.7 41.37 104.11 43.15 101.95"/><polygon class="cls-3" points="32.88 55.83 29.3 56.22 27.26 58.39 27 60.94 28.54 62.22 30.96 63.62 32.37 65.92 31.86 67.83 29.56 68.6 27.26 68.22 25.73 68.09 25.73 69.37 29.68 69.62 33.26 69.24 33.13 65.92 32.75 63.62 31.09 61.71 29.81 60.94 29.17 59.92 30.07 58.26 31.98 57.75 33.9 57.24 34.92 57.62 34.54 55.83 32.88 55.83"/><polygon class="cls-3" points="27.52 71.41 31.98 51.88 33.64 52.13 28.54 71.79 27.52 71.41"/><polygon class="cls-3" points="73.09 55.45 69.52 55.83 67.47 58 67.22 60.56 68.75 61.83 71.17 63.24 72.58 65.54 72.07 67.45 69.77 68.22 67.47 67.83 65.94 67.71 65.94 68.98 69.9 69.24 73.47 68.86 73.34 65.54 72.96 63.24 71.3 61.32 70.03 60.56 69.39 59.54 70.28 57.88 72.2 57.37 74.11 56.85 75.13 57.24 74.75 55.45 73.09 55.45"/><polygon class="cls-3" points="67.73 71.03 72.2 51.49 73.86 51.75 68.75 71.41 67.73 71.03"/></svg>