<svg id="Layer_1" data-name="Layer 1" xmlns="http://www.w3.org/2000/svg" viewBox="0 0 168.38 181.15"><defs><style>.cls-1{fill:#f3ff7a;}.cls-2{fill:#faffc7;}.cls-3{fill:#504ecc;}</style></defs><polygon id="dannieHead" class="cls-1" points="16.01 70.4 11.52 105.62 17.27 142.74 28.79 160.05 46.11 173.46 74.9 181.15 102.43 178.59 125.46 170.27 140.17 151.73 151.73 123.53 152.36 112.64 161.31 110.12 167.7 99.23 168.38 86.42 162.62 74.9 159.38 68.51 154.93 74.9 154.93 82.59 152.99 89.61 150.43 92.81 145.97 87.05 140.17 73.6 135.72 61.45 128.03 43.54 119.07 48.67 94.74 52.5 72.33 53.13 41.61 48 24.34 42.87 17.95 52.5 16.01 70.4"/><path id="dannieHead-2" data-name="dannieHead" class="cls-2" d="M25.52,112.47,31.91,68.3,39.6,53.58,63.3,64.47h32l23-5.13,21.77-3.82L142,50.39l12.14,21.14-1.89,5.09,2.57,13.45,5.75,12.14,5.13,11.52L167,96.46l1.94-14.71,1.26-10.26-1.94-14.08L159.93,42.7l-7.06-2.57,1.26-6.38L151,19.67,148.42,12l-4.5,12.15-9.58-4.5-18.58-6.43L74.78,10,37.66,6.85l-16,7.06L33.21,19,37,27.36,23.58,34.42,14,42.07l3.19,3.82h9s-1.94,6.39-3.2,8.33-5.76,14.71-5.13,17.27S21,85.57,22.28,88.13s2.56,21.78,2.56,21.78Z" transform="translate(-14 -6.85)"/><polygon id="dannieEyebrow" class="cls-3" points="29.46 72.97 51.87 69.77 46.11 65.95 37.79 65.95 29.46 72.97"/><polygon id="dannieEyebrow-2" data-name="dannieEyebrow" class="cls-3" points="90.28 69.77 115.21 72.33 109.45 66.58 97.3 64.01 90.28 69.77"/><polygon id="dannieMouth" class="cls-3" points="61.45 149.8 81.29 156.82 92.81 155.56 97.93 150.43 98.56 154.93 88.98 160.05 78.09 160.69 62.08 156.82 58.89 152.99 61.45 149.8"/><polygon id="dannieEye" class="cls-3" points="45.44 81.29 49.3 90.28 46.74 99.23 40.98 99.23 37.11 95.37 35.85 86.42 38.42 80.03 45.44 81.29"/><polygon id="dannieEye-2" data-name="dannieEye" class="cls-3" points="107.56 83.22 108.19 91.54 105.62 96 99.23 97.3 94.74 92.17 96 83.85 99.23 80.66 105.62 79.4 107.56 83.22"/><polygon id="dannieNose" class="cls-3" points="76.83 84.48 85.16 97.3 83.85 116.51 80.66 128.03 71.7 131.85 62.75 127.4 67.84 121.64 67.84 112.64 67.84 102.43 70.4 93.48 72.97 87.68 76.83 84.48"/></svg>