<?xml version="1.0" encoding="utf-8"?>
<!-- Generator: Adobe Illustrator 24.1.2, SVG Export Plug-In . SVG Version: 6.00 Build 0)  -->
<svg version="1.1" id="Layer_1" xmlns="http://www.w3.org/2000/svg" xmlns:xlink="http://www.w3.org/1999/xlink" x="0px" y="0px"
	 viewBox="0 0 1518.8 431" style="enable-background:new 0 0 1518.8 431;" xml:space="preserve">
<style type="text/css">
	.st0{fill:#F3FF7A;}
	.st1{fill:#FAFFC7;}
	.st2{fill:#504ECC;}
</style>
<g id="dannieHead">
	<polygon class="st0" points="38.1,167.5 27.4,251.3 41.1,339.6 68.5,380.8 109.7,412.7 178.2,431 243.7,424.9 298.5,405.1 
		333.5,361 361,293.9 362.5,268 383.8,262 399,236.1 400.6,205.6 386.9,178.2 379.2,163 368.6,178.2 368.6,196.5 364,213.2 
		357.9,220.8 347.3,207.1 333.5,175.1 322.9,146.2 304.6,103.6 283.3,115.8 225.4,124.9 172.1,126.4 99,114.2 57.9,102 42.7,124.9 	
		"/>
</g>
<path id="dannieHead-2" class="st1" d="M27.4,251.3l15.2-105.1l18.3-35l56.4,25.9h76.1l54.8-12.2l51.8-9.1l4.6-12.2l28.9,50.3
	L329,166l6.1,32l13.7,28.9l12.2,27.4l3-41.1l4.6-35l3-24.4l-4.6-33.5l-19.8-35l-16.8-6.1l3-15.2l-7.5-33.5l-6.1-18.3l-10.7,28.9
	l-22.8-10.7l-44.2-15.3l-97.5-7.6L56.3,0L18.3,16.8l27.4,12.2l9.1,19.8l-32,16.8L0,83.8l7.6,9.1h21.3c0,0-4.6,15.2-7.6,19.8
	s-13.7,35-12.2,41.1s7.6,33.5,10.6,39.6c3,6.1,6.1,51.8,6.1,51.8L27.4,251.3z"/>
<polygon id="dannieEyebrow" class="st2" points="70.1,173.6 123.4,166 109.7,156.9 89.9,156.9 "/>
<polygon id="dannieEyebrow-2" class="st2" points="214.8,166 274.1,172.1 260.4,158.4 231.5,152.3 "/>
<polygon id="dannieMouth" class="st2" points="146.2,356.4 193.4,373.1 220.8,370.1 233,357.9 234.5,368.6 211.7,380.8 185.8,382.3 
	147.7,373.1 140.1,364 "/>
<polygon id="dannieEye" class="st2" points="108.1,193.4 117.3,214.8 111.2,236.1 97.5,236.1 88.3,226.9 85.3,205.6 91.4,190.4 "/>
<polygon id="dannieEye-2" class="st2" points="255.9,198 257.4,217.8 251.3,228.4 236.1,231.5 225.4,219.3 228.4,199.5 236.1,191.9 
	251.3,188.9 "/>
<polygon id="dannieNose" class="st2" points="182.8,201 202.6,231.5 199.5,277.2 191.9,304.6 170.6,313.7 149.3,303.1 161.4,289.4 
	161.4,268 161.4,243.7 167.5,222.4 173.6,208.6 "/>
</svg>
