<svg id="Layer_1" data-name="Layer 1" xmlns="http://www.w3.org/2000/svg" viewBox="0 0 110.6 115.82"><defs><style>.cls-1{fill:#faffc7;}.cls-2{fill:#ffcf34;}.cls-3{fill:#504ecc;}.cls-4{fill:#fff;}</style></defs><polygon id="Hair" class="cls-1" points="98.22 59.74 106.54 40.9 93.37 16.6 66.3 8.94 90.54 41.14 98.22 59.74"/><polygon id="Hair-2" data-name="Hair" class="cls-1" points="14.62 17.83 4.92 37.35 1.96 49.28 0 33.05 7.38 15.83 20.75 9.32 31.37 4.15 55.33 0 69.11 10.21 51.05 5.99 14.62 17.83"/><polygon id="Head" class="cls-2" points="106.54 40.9 104.28 36.39 101.12 40.9 101.12 46.32 99.77 51.28 97.96 53.55 94.8 49.48 90.74 40 87.58 31.43 82.17 18.79 77.15 14.77 57.75 4.04 37.07 6.85 19.71 14.51 9.06 18.34 4.55 25.11 3.19 37.75 0.04 62.57 4.1 88.74 12.22 100.92 24.41 110.4 44.71 115.82 64.12 114.01 80.36 108.14 90.74 95.06 98.86 75.2 99.32 67.53 105.64 65.73 110.15 58.06 110.6 49.03 106.54 40.9"/><polygon id="Eyebrow02" class="cls-3" points="12.67 39.55 28.47 37.3 24.41 34.59 18.54 34.59 12.67 39.55"/><polygon id="Eyebrow" class="cls-3" points="55.54 37.3 73.14 39.1 69.08 35.04 60.51 33.23 55.54 37.3"/><polygon id="Nose" class="cls-4" points="46.09 48.34 51.81 57.13 50.94 70.34 48.74 78.26 42.57 80.89 36.41 77.82 39.93 73.86 39.93 67.69 39.93 60.66 41.69 54.5 43.45 50.54 46.09 48.34"/><polygon id="Mouth" class="cls-3" points="35.17 94.53 49.35 99.56 57.58 98.65 61.24 94.99 61.69 98.19 54.83 101.85 47.06 102.31 35.63 99.56 33.34 96.82 35.17 94.53"/><polygon id="Eye" class="cls-3" points="23.73 45.6 26.48 52 24.65 58.41 20.54 58.41 17.79 55.66 16.88 49.26 18.7 44.68 23.73 45.6"/><polygon id="Eye-2" class="cls-3" points="68.1 46.97 68.55 52.91 66.72 56.12 62.15 57.03 58.95 53.37 59.86 47.43 62.15 45.14 66.72 44.23 68.1 46.97"/></svg>