<svg id="Layer_1" data-name="Layer 1" xmlns="http://www.w3.org/2000/svg" viewBox="0 0 118.07 127.1"><defs><style>.cls-1{fill:#ffcf34;}.cls-2{fill:#504ecc;}.cls-3{fill:#faffc7;}.cls-4{fill:#fff;}</style></defs><polygon id="Head" class="cls-1" points="114.01 52.18 111.75 47.67 108.59 52.18 108.59 57.6 107.23 62.57 105.43 64.83 102.27 60.76 98.21 51.28 95.05 42.71 89.64 30.07 84.62 26.05 65.22 15.32 44.54 18.13 27.17 25.79 16.53 29.62 12.02 36.39 10.66 49.03 7.5 73.85 11.56 100.02 19.68 112.21 31.87 121.68 52.18 127.1 71.58 125.29 87.83 119.42 98.21 106.34 106.33 86.48 106.78 78.81 113.1 77.01 117.62 69.34 118.07 60.31 114.01 52.18"/><polygon id="Mouth" class="cls-2" points="42.64 105.81 56.81 110.84 65.05 109.93 68.7 106.27 69.16 109.47 62.3 113.13 54.53 113.59 43.09 110.84 40.81 108.1 42.64 105.81"/><path id="Hair" class="cls-3" d="M30.79,102.71l4.47-30.87,5.37-10.3,16.56,7.61H79.57l16.11-3.58,15.22-2.69,1.33-3.57,5,14.54,2.2,3.8,1.78,9.4,4,8.5,3.59,8.06L132,92.49l.26-9.19,2.55-5.11-4.23-14L124.77,54l-4.9-1.79.87-4.51-2.24-9.85-1.79-5.37L113.58,41l-6.71-3.14-13-4.48L65.25,31.11l-26-2.24-11.21,4.9,8.06,3.58,2.74,5.84-9.4,4.9-6.72,5.37L25,56.15h6.26A35,35,0,0,1,29,62c-.9,1.34-4,10.29-3.58,12.08s2.22,9.87,3.1,11.66,1.79,15.18,1.79,15.18Z" transform="translate(-22.76 -28.87)"/><polygon id="Eyebrow02" class="cls-2" points="20.55 51.02 36.22 48.78 32.19 46.1 26.37 46.1 20.55 51.02"/><polygon id="Eyebrow01" class="cls-2" points="63.07 48.78 80.52 50.57 76.49 46.55 67.99 44.75 63.07 48.78"/><polygon id="Nose" class="cls-4" points="53.67 59.08 59.49 68.03 58.59 81.45 56.35 89.51 50.09 92.19 43.82 89.06 47.4 85.03 47.4 78.76 47.4 71.61 49.19 65.34 50.99 61.31 53.67 59.08"/><polygon id="Eye02" class="cls-2" points="34.58 55.88 36.94 61.39 35.37 66.89 31.83 66.89 29.47 64.53 28.68 59.02 30.26 55.09 34.58 55.88"/><polygon id="Eye01" class="cls-2" points="72.71 57.06 73.1 62.17 71.53 64.92 67.6 65.71 64.84 62.56 65.64 57.46 67.6 55.49 71.53 54.7 72.71 57.06"/></svg>