<svg id="Layer_1" data-name="Layer 1" xmlns="http://www.w3.org/2000/svg" viewBox="0 0 168.06 180.84"><defs><style>.cls-1{fill:#f3ff7a;}.cls-2{fill:#5c665a;}.cls-3{fill:#504ecc;}.cls-4{fill:#ff6961;}</style></defs><g id="peterHead"><polygon class="cls-1" points="15.97 70.29 11.5 105.44 17.25 142.5 28.75 159.75 46.01 173.17 74.76 180.84 102.24 178.28 125.24 169.97 139.94 151.44 151.44 123.33 152.08 112.46 161.03 109.91 167.42 99.05 168.06 86.27 162.31 74.76 159.11 68.37 154.64 74.76 154.64 82.43 152.72 89.46 150.16 92.66 145.69 86.9 139.94 73.48 135.47 61.34 127.8 43.45 118.85 48.56 94.57 52.4 72.21 53.04 41.53 47.92 24.28 42.81 17.89 52.4 15.97 70.29"/></g><g id="peterHead-2" data-name="peterHead"><path class="cls-2" d="M25.45,112.6l6.39-44.09,7.66-14.7L63.15,64.67H95.1l23-5.11,21.73-3.83,1.91-5.11L153.88,71.7,152,76.81l2.55,13.42,5.75,12.14,5.12,11.51,1.27-17.26,1.92-14.69,1.28-10.23-1.92-14.06L159.64,43l-7-2.56L153.88,34l-3.19-14.06-2.56-7.66-4.47,12.14-9.58-4.48-18.54-6.39L74.65,10.36,37.59,7.16l-16,7,11.5,5.11L37,27.61l-13.42,7-9.59,7.67,3.2,3.83h8.94s-1.91,6.39-3.19,8.31-5.75,14.7-5.11,17.25S21,85.76,22.25,88.32,24.81,110,24.81,110Z" transform="translate(-13.94 -7.16)"/></g><polygon id="peterEyebrow" class="cls-3" points="29.39 72.85 51.76 69.65 46.01 65.82 37.7 65.82 29.39 72.85"/><polygon id="peterEyebrow-2" data-name="peterEyebrow" class="cls-3" points="90.1 69.65 115.02 72.21 109.27 66.46 97.13 63.9 90.1 69.65"/><polygon id="petreMouth" class="cls-3" points="61.34 149.53 81.15 156.56 92.66 155.28 97.77 150.16 98.41 154.64 88.82 159.75 77.96 160.39 61.98 156.56 58.79 152.72 61.34 149.53"/><polygon id="peterEye" class="cls-3" points="45.37 81.15 49.2 90.1 46.65 99.05 40.9 99.05 37.06 95.21 35.78 86.27 38.34 79.88 45.37 81.15"/><polygon id="peterEye-2" data-name="peterEye" class="cls-3" points="107.35 83.07 107.99 91.38 105.44 95.85 99.05 97.13 94.57 92.02 95.85 83.71 99.05 80.51 105.44 79.24 107.35 83.07"/><g id="peterNose"><polygon class="cls-4" points="76.68 84.35 84.99 97.13 83.71 116.3 80.51 127.8 71.57 131.63 62.62 127.16 67.73 121.41 67.73 112.46 67.73 102.24 70.29 93.29 72.85 87.54 76.68 84.35"/></g></svg>