<svg id="Layer_1" data-name="Layer 1" xmlns="http://www.w3.org/2000/svg" viewBox="0 0 1283.08 501.45"><defs><style>.cls-1{fill:#f3ff7a;}.cls-2{fill:#504ecc;}</style></defs><g id="step"><path class="cls-1" d="M1690,574.82V607.1h-32.68c-2.11,2.14-1.43,4.23-1.44,6.12q-.18,31.42-.19,62.85c0,3.49-.66,22.45-.67,25.71-.12,31.06-.42,62.13.15,93.19.16,8.78.5,17.55.64,26.87h-382c-.42,5.54-3.95,5.71-8,5.71q-209.68-.09-419.35,0h-4.33c-2.32-1.26-1.07-3.34-2.5-5.17H441.89c1.12-90.66,1.18-180.76-.3-271.61-7.39-.47-34.67,1.32-34.67,1.32V519.8H840.43c.13-54.29.42-108-.11-162.44H805.44V326.1h501.74c1.29,10.35-2.63,20.33,1.22,30.41-12.36,1.48-23.52.32-35.39,1-.32,72.3-.17,144.43.16,217.29Z" transform="translate(-406.92 -326.1)"/></g><path id="_1" data-name="1" class="cls-2" d="M1095.37,444V695.72H1052V519.45H993.15V483.33h33.59c17.34,0,25.28-7.22,25.28-24.2V444Z" transform="translate(-406.92 -326.1)"/><path id="_3" data-name="3" class="cls-2" d="M725.32,745.7v24.49H619.55V748.73C646.21,732.48,693,701.26,693,665.94c0-13.66-6.93-23.63-21.89-23.63-19.07,0-25.14,16.25-25.79,31.86l-25.57-1.95c0-27.74,18.2-55.05,51.79-55.05,27.75,0,47.47,18.64,47.47,46.82,0,34-29,65.67-55,81.71Z" transform="translate(-406.92 -326.1)"/><path id="_3-2" data-name="3" class="cls-2" d="M1396.1,722.51l25.79-1.52c0,17.12,13.22,26.44,31,26.44,15.4,0,29.27-7.15,29.27-24.49,0-20.81-20.38-21.46-36.63-21.46V680.89c21,0,28.61-7.59,28.61-19.29,0-13.44-9.76-19.72-21.89-19.72-13.88,0-23,8-23.2,21.67l-25.57-1.73c0-28.4,22.32-44.87,48.33-44.87,25.14,0,48.34,15.39,48.34,41.4,0,11.7-4.77,23-17.56,29.91,18,5.64,25.57,21,25.57,37.5,0,30.56-26.44,46.6-55.91,46.6C1422.11,772.36,1396.1,755.88,1396.1,722.51Z" transform="translate(-406.92 -326.1)"/></svg>