<svg xmlns="http://www.w3.org/2000/svg" xmlns:xlink="http://www.w3.org/1999/xlink" width="421.875" height="198.377" viewBox="0 0 421.875 198.377">
  <defs>
    <filter id="Path_50" x="0" y="0" width="421.875" height="198.377" filterUnits="userSpaceOnUse">
      <feOffset dx="10" dy="10" input="SourceAlpha"/>
      <feGaussianBlur stdDeviation="10" result="blur"/>
      <feFlood flood-opacity="0.161"/>
      <feComposite operator="in" in2="blur"/>
      <feComposite in="SourceGraphic"/>
    </filter>
  </defs>
  <g transform="matrix(1, 0, 0, 1, 0, 0)" filter="url(#Path_50)">
    <path id="Path_50-2" data-name="Path 50" d="M430.19,733.694c-11.741,20.816-47.719,20.343-59.231-1.3-9.754,9.261-21.63,17.278-35.7,15.31-14.037-1.993-33.2-13.985-29.815-30.127-27.561,10.29-32.065-24.608-16.223-40.175,3.233-5.733,12.781-6.444,15.2-10.917-7.4-10.159-6.266-24.978,1.584-34.614,10.687-11.663,29.974-16.648,44.176-8.845,5.022,1.028,8.758,14.169,11.548,8.52,6.808-10.177,19.024-18.5,31.687-15.235,9.515.8,19.679,6.535,22.734,15.951,12.9-19.081,44.713-27.5,61.326-9.144,7.128,10.938,5.262,18.841,15.147,4.977,11.182-8.256,35.267-12.758,44.219.328,3.915,16.374,18.446-10.417,29.021-12.733,13.854-10,38.52-5.341,38.31,14.647,15.775.26,43.863-3.763,30.582,29.5,6.031,8.129,13.143,18.971-.911,30.971-4.862,8.924-13.424,16.315-23.384,18.87-3,6.363-5.086,16.359-11.945,21.082-17.87,7.569-39.956,4.432-51.341-11.963-2.778,7.635-13.055,10.032-20.047,12.661a43.08,43.08,0,0,1-31.257-3.876C485.979,750.04,445.132,755.2,430.19,733.694Z" transform="translate(-260.13 -590.6)" fill="#fff"/>
  </g>
</svg>
