<svg xmlns="http://www.w3.org/2000/svg" viewBox="0 0 659.66 842.65"><defs><style>.cls-1{fill:#f3ff7a;}.cls-2{fill:#9291d5;}.cls-3{fill:#d22b49;}.cls-4{fill:#fff;}.cls-5{fill:#504ecc;}</style></defs><title>Asset 1</title><g id="Layer_2" data-name="Layer 2"><g id="Layer_1-2" data-name="Layer 1"><g id="C"><path class="cls-1" d="M210.33,22.73a38.2,38.2,0,0,1-1.08,8.2,69,69,0,0,1-3.09,10A85.5,85.5,0,0,1,201.3,51.2a51.41,51.41,0,0,1-6.5,9.22,33.88,33.88,0,0,1-8,6.63,17.89,17.89,0,0,1-9.22,2.52,29,29,0,0,1-3-.19A14.67,14.67,0,0,1,171,68.5a8.29,8.29,0,0,1-3.16-2.09,5.08,5.08,0,0,1-1.33-3.66,9.7,9.7,0,0,1,.82-3.53,19.4,19.4,0,0,1,3-4.67q2.28-2.53,4.93-6A65.47,65.47,0,0,0,180,41.29a60.88,60.88,0,0,0,3.6-7.45,18,18,0,0,0,1.45-6.57,9.35,9.35,0,0,0-1.7-5.87c-1.14-1.47-3.09-2.21-5.87-2.21q-5.43,0-12.25,3.54A81.35,81.35,0,0,0,151,32.45a163.21,163.21,0,0,0-15.15,14.46q-7.7,8.27-14.9,17.67T107.36,84.15a199.51,199.51,0,0,0-11.11,20.08,130.29,130.29,0,0,0-7.45,19.06,59,59,0,0,0-2.72,16.61q0,9.21,4.93,14.77t16.29,5.56q5.3,0,15.78-4.11a126.75,126.75,0,0,0,17.49-8.2q7-4.11,14.14-9.09t13.57-9.6q6.43-4.6,11.74-8.33a54.77,54.77,0,0,1,8.72-5.24,2.32,2.32,0,0,1,1.51-.51c1.26,0,2.13,1,2.59,3.09a32.39,32.39,0,0,1,.69,7,29.7,29.7,0,0,1-.57,5.24,17.84,17.84,0,0,1-3.59,7.14q-1.4,1.63-5.18,5.55T174.72,152q-5.68,4.92-13,10.23A127.13,127.13,0,0,1,145.87,172a143,143,0,0,1-22,8.71Q110.46,185,100.48,185a62.42,62.42,0,0,1-20.08-2.84,36.41,36.41,0,0,1-13.63-7.89A30.11,30.11,0,0,1,59,162.18a46,46,0,0,1-2.46-15.34,86.45,86.45,0,0,1,3.16-22.22,150.39,150.39,0,0,1,8.77-24.12A207.82,207.82,0,0,1,81.85,76,226.84,226.84,0,0,1,98.9,52.59a210.43,210.43,0,0,1,19.76-20.77,161.18,161.18,0,0,1,21.46-16.67A111.61,111.61,0,0,1,162.22,4a63.74,63.74,0,0,1,21.84-4,41.46,41.46,0,0,1,10.1,1.2,23.63,23.63,0,0,1,8.4,3.85,18.33,18.33,0,0,1,5.68,7A24.57,24.57,0,0,1,210.33,22.73Z"/></g><g id="h"><path class="cls-1" d="M170.43,162.25q3-6.45,6.94-14.33t7.89-15.66q4-7.77,7.52-14.77t5.93-11.93l41.67-81.95a10.55,10.55,0,0,1,2.33-3.16,20,20,0,0,1,7.89-4.6,15.29,15.29,0,0,1,4.55-.7c3.7,0,6.27.7,7.7,2.08A6.87,6.87,0,0,1,265,22.35a14.44,14.44,0,0,1-1.39,5.87A39.41,39.41,0,0,1,260.45,34q-5.55,9.48-10.67,19.13T239.56,72.54Q234.45,82.32,229.27,92t-10.86,19.13q3.53-3.4,7.51-7.07a64.43,64.43,0,0,1,8.65-6.69,48.08,48.08,0,0,1,10.23-5,37.11,37.11,0,0,1,12.37-2,38.3,38.3,0,0,1,7.7.76,20.18,20.18,0,0,1,6.44,2.46,12.49,12.49,0,0,1,4.42,4.67,14.88,14.88,0,0,1,1.64,7.27,30.68,30.68,0,0,1-1.7,10.41,46.49,46.49,0,0,1-4.36,9A78.31,78.31,0,0,1,265.5,133c-2.1,2.57-4.1,5.17-6,7.83a56.21,56.21,0,0,0-4.93,8.27,27.48,27.48,0,0,0-2.59,9.34,2.07,2.07,0,0,1-.06.5,2.22,2.22,0,0,0-.06.51c0,1.68.56,2.74,1.7,3.16a12.77,12.77,0,0,0,4.36.63,23,23,0,0,0,7.32-1.33,47.76,47.76,0,0,0,7.89-3.53q4-2.22,8-5t7.57-5.68q3.6-2.91,6.63-5.62c2-1.81,3.74-3.39,5.18-4.74a8.12,8.12,0,0,1,2.4-1.51,6.4,6.4,0,0,1,2.4-.51,5.06,5.06,0,0,1,3.85,1.71,6.51,6.51,0,0,1,1.57,4.61,13.19,13.19,0,0,1-1.83,6.06,22.39,22.39,0,0,1-6.25,6.81q-6.94,6.08-14.14,11.62A137.23,137.23,0,0,1,274,176a83,83,0,0,1-14.58,6.82,43.2,43.2,0,0,1-14.21,2.52q-9,0-14.39-4.1t-5.43-12.94a33.71,33.71,0,0,1,2.21-12.19A70.86,70.86,0,0,1,233,145c2.15-3.57,4.44-7,6.88-10.35a108.6,108.6,0,0,0,6.44-9.79,24.38,24.38,0,0,0,2.34-4,9.74,9.74,0,0,0,.82-4,4.65,4.65,0,0,0-1-3.09,3.92,3.92,0,0,0-3.16-1.2,26.94,26.94,0,0,0-13.76,3.66,50.59,50.59,0,0,0-11.62,9.34,100.92,100.92,0,0,0-9.85,12.44q-4.55,6.75-8.46,12.94a73.2,73.2,0,0,0-3.59,6.38c-1.23,2.39-2.49,4.86-3.79,7.38s-2.68,5-4.11,7.51a50.68,50.68,0,0,1-4.48,6.63,23,23,0,0,1-4.92,4.67,9.41,9.41,0,0,1-5.37,1.77,8.82,8.82,0,0,1-6.82-2.59,9.22,9.22,0,0,1-2.4-6.5,20.55,20.55,0,0,1,1-6.12A59.42,59.42,0,0,1,170.43,162.25Z"/></g><g id="e"><path class="cls-1" d="M352.62,90.28q10.49,0,15.66,5t5.18,14a25.76,25.76,0,0,1-2.78,11.11q-2.78,5.82-9.6,11.81a101.57,101.57,0,0,1-18.24,12.25,216.38,216.38,0,0,1-28.6,12.56,8.19,8.19,0,0,0,3.91,5.74,16.1,16.1,0,0,0,8.72,2.09,49.88,49.88,0,0,0,12.43-1.71,100.41,100.41,0,0,0,13.13-4.35q6.51-2.66,12.69-5.75t11.18-5.87q5-2.78,8.33-4.8c2.23-1.34,3.73-2.18,4.48-2.52a5.09,5.09,0,0,1,2.09-.89,13.67,13.67,0,0,1,1.7-.12,4.41,4.41,0,0,1,2.53.69,7.18,7.18,0,0,1,1.7,1.64,5.74,5.74,0,0,1,.95,2,8.15,8.15,0,0,1,.25,1.84,17.32,17.32,0,0,1-.25,2.71,8.09,8.09,0,0,1-1.9,3.6q-.63.63-4.23,3.41t-9.28,6.56q-5.67,3.79-13.19,8a155.54,155.54,0,0,1-15.91,7.77A126.88,126.88,0,0,1,336.08,183a72.19,72.19,0,0,1-17.93,2.33,30,30,0,0,1-13.44-2.9,30.42,30.42,0,0,1-10-7.83,34.76,34.76,0,0,1-6.25-11.36,42.51,42.51,0,0,1-2.14-13.51,38.41,38.41,0,0,1,2.14-11.94,61.75,61.75,0,0,1,6.19-13.06,80.17,80.17,0,0,1,9.91-12.82,72.55,72.55,0,0,1,13.2-11.05,68.87,68.87,0,0,1,16.09-7.7A59.48,59.48,0,0,1,352.62,90.28Zm-4.54,17.42a6.15,6.15,0,0,0-1.14-.12h-1.13a21.47,21.47,0,0,0-9,1.89,30.3,30.3,0,0,0-7.64,5,39.43,39.43,0,0,0-6.18,7,90.67,90.67,0,0,0-4.87,7.77,68,68,0,0,0-3.59,7.39q-1.46,3.52-2.21,5.93,4.41-2.28,9.15-5.18t8.9-5.55q4.17-2.65,7.26-4.8c2.06-1.43,3.52-2.4,4.36-2.9,3.79-2.36,6.39-4.57,7.83-6.63a9.91,9.91,0,0,0,2.14-5.37,4,4,0,0,0-1.2-3A5.1,5.1,0,0,0,348.08,107.7Z"/></g><g id="e-2" data-name="e"><path class="cls-1" d="M441.51,90.28q10.49,0,15.66,5t5.18,14a25.76,25.76,0,0,1-2.78,11.11q-2.77,5.82-9.6,11.81a101.93,101.93,0,0,1-18.24,12.25,217,217,0,0,1-28.6,12.56,8.19,8.19,0,0,0,3.91,5.74,16.06,16.06,0,0,0,8.71,2.09,49.89,49.89,0,0,0,12.44-1.71,100.41,100.41,0,0,0,13.13-4.35q6.51-2.66,12.69-5.75t11.18-5.87q5-2.78,8.33-4.8T478,139.9a5.09,5.09,0,0,1,2.09-.89,13.54,13.54,0,0,1,1.7-.12,4.35,4.35,0,0,1,2.52.69,7,7,0,0,1,1.71,1.64,5.74,5.74,0,0,1,1,2,8.77,8.77,0,0,1,.25,1.84,18.62,18.62,0,0,1-.25,2.71,8.09,8.09,0,0,1-1.9,3.6q-.63.63-4.23,3.41t-9.28,6.56q-5.69,3.79-13.19,8a155.54,155.54,0,0,1-15.91,7.77A126.88,126.88,0,0,1,425,183,72.19,72.19,0,0,1,407,185.35a30,30,0,0,1-13.44-2.9,30.32,30.32,0,0,1-10-7.83,34.58,34.58,0,0,1-6.25-11.36,42.52,42.52,0,0,1-2.15-13.51,38.44,38.44,0,0,1,2.15-11.94,61.75,61.75,0,0,1,6.19-13.06,80.17,80.17,0,0,1,9.91-12.82,72.48,72.48,0,0,1,13.19-11.05,68.94,68.94,0,0,1,16.1-7.7A59.48,59.48,0,0,1,441.51,90.28ZM437,107.7a6.23,6.23,0,0,0-1.14-.12h-1.14a21.43,21.43,0,0,0-9,1.89,30.12,30.12,0,0,0-7.64,5,39.48,39.48,0,0,0-6.19,7q-2.72,3.92-4.86,7.77a70,70,0,0,0-3.6,7.39q-1.44,3.52-2.21,5.93,4.42-2.28,9.16-5.18t8.9-5.55q4.17-2.65,7.26-4.8t4.36-2.9q5.67-3.54,7.82-6.63a9.94,9.94,0,0,0,2.15-5.37,4,4,0,0,0-1.2-3A5.1,5.1,0,0,0,437,107.7Z"/></g><g id="r"><path class="cls-1" d="M517.77,108.59A112.29,112.29,0,0,1,527.94,103q5.23-2.52,10.16-4.36a83,83,0,0,1,9.41-2.9,35.13,35.13,0,0,1,8-1.07c3.78,0,6.71.9,8.77,2.71s3.1,4.86,3.1,9.16c0,.92,0,1.91-.13,3a23.94,23.94,0,0,1-.51,3.35,20.81,20.81,0,0,1-3.78,7.7,116.92,116.92,0,0,1-7.39,9.22q-4.23,4.8-9.09,9.66l-9,9c-2.73,2.74-5,5.11-6.81,7.14S528,159,528,159.72a4.78,4.78,0,0,0,.13,1.39c.08.25.46.38,1.13.38q6.82-2.91,15.22-7t16.73-8.39q8.32-4.31,15.78-8.4t12.63-7.13a16.34,16.34,0,0,1,2.33-1.08,6.56,6.56,0,0,1,2.21-.44,5.1,5.1,0,0,1,3.79,1.52,5.44,5.44,0,0,1,1.52,4,12.39,12.39,0,0,1-2.47,6.62,30.92,30.92,0,0,1-8.27,7.77l-9.91,6.25q-5.49,3.48-11.49,7.2t-12.12,7.26q-6.12,3.53-11.8,6.31a92.52,92.52,0,0,1-10.67,4.48,27.35,27.35,0,0,1-8.65,1.71q-8.72,0-13.07-4.17a14.2,14.2,0,0,1-4.36-10.73,6.39,6.39,0,0,1,.13-1.52,40.58,40.58,0,0,1,3.28-10.73,80.09,80.09,0,0,1,5.43-9.85q3-4.66,6.31-8.9t6-8a69.94,69.94,0,0,0,4.48-6.89,12,12,0,0,0,1.77-5.8,3.42,3.42,0,0,0-.25-1.27,1.09,1.09,0,0,0-1.14-.63,18.53,18.53,0,0,0-5,1.14,60.26,60.26,0,0,0-7.39,3,54.7,54.7,0,0,0-7.45,4.35,16,16,0,0,0-5.05,5.24q-2,3.54-4.67,9t-5.49,11.36q-2.85,5.94-5.5,11.75t-4.54,10a24.8,24.8,0,0,1-4,6.57,28.16,28.16,0,0,1-5.37,4.92,26.82,26.82,0,0,1-5.93,3.16,16.09,16.09,0,0,1-5.55,1.13,6.67,6.67,0,0,1-4.61-1.51q-1.71-1.51-1.71-4.93a16.85,16.85,0,0,1,2.27-8.08q2.28-4.29,4.61-9.34t5.37-11.55q3-6.51,7-14.9t9.4-19.38a12.75,12.75,0,0,1-3-3.73,11.38,11.38,0,0,1-1.2-5.49,10,10,0,0,1,4.67-8.84,16.18,16.18,0,0,1,5-2.08,25.27,25.27,0,0,1,6-.7,38.36,38.36,0,0,1,6.57.57A25.3,25.3,0,0,1,513,97.1a13.74,13.74,0,0,1,4.23,2.77,5.23,5.23,0,0,1,1.64,3.79,2.87,2.87,0,0,1-.25,1c-.17.42-.36.89-.57,1.39l-.57,1.39a2.87,2.87,0,0,0-.25,1c0,.17,0,.25.13.25h.12Z"/></g><g id="s"><path class="cls-1" d="M616.39,111.11a74.55,74.55,0,0,1,13.76,9.22,65.5,65.5,0,0,1,10.29,10.92,48.16,48.16,0,0,1,6.44,11.68,33.25,33.25,0,0,1,2.21,11.61,21.72,21.72,0,0,1-4.11,13,35.13,35.13,0,0,1-10.73,9.72,54.44,54.44,0,0,1-15.15,6.06,72.27,72.27,0,0,1-17.23,2.08,55.6,55.6,0,0,1-12.76-1.45,40,40,0,0,1-11.3-4.48,30.86,30.86,0,0,1-8.77-7.77,28.73,28.73,0,0,1-5.18-11.3,7,7,0,0,1-.25-1.64,8.12,8.12,0,0,1,2.4-5.87,7.25,7.25,0,0,1,5.3-2.46,11.13,11.13,0,0,1,3.09.5,4.18,4.18,0,0,1,2.59,2.28,18.11,18.11,0,0,0,4.61,5.43,32.1,32.1,0,0,0,6.63,4.1,39,39,0,0,0,7.76,2.65,35.72,35.72,0,0,0,8,.95,39.3,39.3,0,0,0,7.77-.76,21.6,21.6,0,0,0,6.56-2.4,12.9,12.9,0,0,0,4.49-4.17,11.12,11.12,0,0,0,1.64-6.18,24.71,24.71,0,0,0-2.91-11.87,42.4,42.4,0,0,0-7.51-10,72.17,72.17,0,0,0-10.48-8.59q-5.87-4-11.68-7.63a8.7,8.7,0,0,1-1.89-2.21,6.47,6.47,0,0,1-1.27-3.73,3.6,3.6,0,0,1,.76-2.4,67.77,67.77,0,0,1,4.67-5.43,51,51,0,0,1,5.69-5.11A28.22,28.22,0,0,1,606.41,92a19.26,19.26,0,0,1,7.32-1.45,17,17,0,0,1,5.18.76,13.94,13.94,0,0,1,4,1.95,10.48,10.48,0,0,1,2.59,2.66,5,5,0,0,1,1,2.71,7.08,7.08,0,0,1-.89,3.41,14.93,14.93,0,0,1-2.33,3.16,39.37,39.37,0,0,1-3.29,3Q618.15,109.73,616.39,111.11Z"/></g><g id="beer"><polygon class="cls-1" points="137.96 395.59 133.16 410.82 127.96 417.59 127.87 492.58 105.81 562.66 118.98 571.88 136.63 577.66 148.16 578.83 169.33 582.42 188.74 581.53 213.44 580.63 216.97 570.75 220.5 539.3 220.97 524.08 212.74 522.91 195.56 518.44 178.8 510.5 176.39 503.36 177.27 494.38 185.21 489.89 179.04 487.19 167.57 479.11 165.8 468.32 169.33 455.75 173.74 449.46 170.21 438.68 171.98 428.79 181.68 424.3 207.27 421.6 222.26 418.91 217.85 410.82 218.73 400.04 224.91 392.85 241.67 387.46 248.15 387.24 255.78 356.92 264.61 307.5 125.05 302.59 120.81 336.25 121.69 365 123.41 379.11 126.11 378.89 137.96 395.59"/></g><polygon class="cls-2" points="184.96 581.59 169.33 582.42 161.96 581.59 148.96 578.59 134.96 576.59 126.96 574.59 118.98 572.07 114.96 569.59 105.81 563.02 109.34 550.67 127.96 492.59 127.96 469.59 127.87 445.69 127.87 418.34 129.59 416.91 133.16 413.93 138.46 395.4 126.11 378.64 123.41 378.87 115.52 379.52 101.4 386.58 98.76 395.4 100.52 410.4 110.23 420.99 114.64 429.81 117.28 438.63 113.75 458.92 114.64 470.39 119.05 484.5 77.58 589.48 0 842.65 118.33 842.65 184.96 581.59"/><polygon class="cls-2" points="222.91 392.29 216.73 399.34 215.85 409.93 220.26 417.87 205.27 420.51 179.68 423.16 169.98 427.57 168.21 437.28 171.74 447.86 167.33 454.04 163.8 466.39 165.57 476.98 177.04 484.91 183.21 487.56 175.27 491.97 174.39 500.79 178.8 510.5 195.56 518.44 212.32 522.85 217.67 523.61 230.85 525.49 244.08 518.44 244.96 506.97 243.2 499.91 236.14 492.85 248.49 492.85 254.67 484.91 257.31 475.21 256.43 463.74 253.78 460.21 243.2 456.68 258.2 455.8 266.14 450.51 268.78 442.57 267.9 427.57 265.25 423.16 252.9 421.4 269.67 418.75 278.49 409.05 278.49 398.46 274.96 392.29 270.55 386.99 265.25 386.11 246.15 386.77 239.67 386.99 222.91 392.29"/><polygon class="cls-3" points="173.07 433.31 176.15 429.34 184.09 429.34 192.47 430.22 198.21 430.22 199.09 439.48 197.77 448.75 192.47 452.27 182.33 449.63 173.51 446.1 172.63 440.36 173.07 433.31"/><polygon class="cls-3" points="175.71 478.74 169.98 473.89 169.1 467.71 170.86 462.86 173.51 458.89 181.45 459.77 187.18 460.65 191.15 462.86 191.15 473.45 186.74 480.94 175.71 478.74"/><polygon class="cls-3" points="200.41 505.2 196.44 511.38 189.39 506.97 180.56 500.35 181.45 494.62 185.42 491.09 196 492.41 199.97 495.06 202.18 499.03 200.41 505.2"/><polygon class="cls-3" points="246.87 399.2 247.31 406.26 243.78 411.55 237.17 413.75 226.14 412.43 222.17 409.78 220.41 404.05 223.5 398.32 225.7 396.55 231.44 394.35 239.37 393.9 243.34 395.23 246.87 399.2"/><path id="beer-2" data-name="beer" class="cls-4" d="M157.86,305.42l67,3.53,39.7,3.53L262.4,298.8s2.21-13.67,3.09-15.43.44-6.62.44-6.62l-3.09-4-6.61-6.62-4.41-6.61-7.06-2.65-4.85-.88-2.21-3.09-11-6.17L214.32,245l-6.17-.44-5.74.88-7-.88-4,1.32-7.06-1.32-7.06-2.65L162.72,245l-7.94,3.53L146,251.61l-5.73,7.94-8.38,8.82-7.5,39.26.71,0,.17-1.35Z"/><polygon id="fingernail" class="cls-3" points="126.57 391.78 127.01 388.7 122.16 386.49 115.55 390.02 111.58 392.23 107.61 395.75 108.05 399.72 108.93 405.46 112.46 407.66 118.19 398.4 126.57 391.78"/><g id="beer-3" data-name="beer"><polygon class="cls-1" points="391.01 622.64 409.49 621.06 424.35 615.11 418.37 541.9 448.7 428.68 452.61 419.24 459.83 391.48 463.14 357.77 326.09 330.59 323.75 380.67 324.48 411.9 314.27 597.52 315.52 607.94 339.39 614.47 358.1 619.79 379.52 621.14 391.01 622.64"/></g><path class="cls-2" d="M444.9,644.38,428.15,532.76,435.63,520c4-6.83,3.68-15,4-22.6.3-7,1.72-11,5.13-16.93,2.72-4.77,7.39-8.48,12-11.36,7.57-4.77,11.51-14.05,11.15-23-.28-7-7.57-10.86-12.63-14.84-2.68-.86-7.57-3.61-10.31-2.64a10.24,10.24,0,0,0-3.25,2.19c-4.51,4-12.06,7.93-13,14-.74,4.75,1.8,9.54,1.8,14.18,1.63,5.63,4.11,6.81,2.75,12.66-1.64,7.07-3,14.29-4.92,21.28-3.34,8.82-7.44,17.62-9.49,26.83-2.91,13.11-2.48,26.74-1,40,1,9.63,2.61,19.2,3.8,28.81.51,4.13,4.82,22.62.15,24.91-10,5-22.63,9.28-33.76,8.09-28-3-42-6-45-6l17.67,227.06H467.87Z"/><polygon class="cls-2" points="343.11 552.03 361.23 548.07 367.71 539.61 368.84 530.82 362.1 524.73 368.71 523.54 381.67 518.39 385.78 508.47 385.12 495.64 382.21 488.63 388.04 479.12 388.5 469.26 380.04 462.78 355.71 454.44 341.7 448.48 347.79 441.74 349.31 431.23 344.88 422.96 329.75 414.03 323.48 412.35 305.02 407.4 299.66 407.07 294.17 411.23 289.35 416.45 286.96 426.77 293.37 438.21 309.1 444.57 296.67 443.5 293.1 447.2 288.86 461.62 289.65 469.95 296.19 476.89 310.61 481.13 299.5 482.19 296.13 485.03 292.68 496 293.07 506.05 297.3 515.18 309.33 517.96 300.87 523.25 297.56 529.73 295.84 541.1 307.14 550.96 320.41 552.09 325.78 552.55 343.11 552.03"/><polygon class="cls-5" points="378.07 514.39 371.39 517.82 360.15 517.49 357.54 509.19 359.93 498.87 364.29 497.62 370.08 498.05 378.01 498.98 379.69 503.44 380.32 508.57 378.07 514.39"/><polygon class="cls-5" points="357.46 474.31 360.4 465.48 365.99 466.77 374.36 467.8 382.09 469.59 384.2 474.15 383.04 481.13 380.89 486.52 371.5 487.97 361.02 488.26 356.66 483.63 357.46 474.31"/><polygon class="cls-5" points="344.08 528.26 348.54 526.58 359.15 527.67 362.23 532 361.79 537.79 351.71 542.25 343.84 544.95 341.36 538.04 341.04 531.63 344.08 528.26"/><polygon class="cls-5" points="320.2 437.02 317.96 431.07 319.98 424.3 324.31 421.22 328.48 420.83 336.11 423.05 341.2 426.49 342.95 428.7 344.67 434.99 341.66 440.18 337.2 441.86 326.15 440.66 320.2 437.02"/><path id="beer-4" data-name="beer" class="cls-4" d="M430.68,351.54l31.6,8.21-.14,1.35.7.14,1.54-39.94-6.18-10.48-3.8-9-7.9-5-6.94-5.22-13.48-6.29-7.47,1-7.18-.3-3.57-2.19-7.07-.73-5.39-2.15-6.12-1-12.43-1.06-12.13,3.53-2.85,2.51-4.92-.23-7.47,1-5.79,5.45-7.94,4.95-3.9,3.18s-1.53,4.62-1.06,6.54-.47,15.74-.47,15.74l-5.23,12.82,39.47,5.51Z"/><g id="fingernail-2" data-name="fingernail"><polygon class="cls-5" points="450.46 462.1 454.39 460.75 456.54 455.36 457.87 451.59 454.79 447.26 451.42 444.22 445.77 439.29 440.55 440.34 440.28 443.45 446.96 451.79 450.46 462.1"/></g><g id="beer-5" data-name="beer"><polygon class="cls-1" points="559.35 599.2 577.89 599.27 593.21 594.74 593.54 522.48 615.83 448.45 613.35 444.51 614.05 425.25 630.98 413.14 633.47 414.19 638.18 405.28 647.76 378.7 653.96 345.96 519.76 307.36 513.13 356.22 511.18 386.89 517.27 389.11 531.57 399.33 535.26 407.96 532.82 418.3 526.17 424.48 539.61 431.64 563.12 442.07 570.98 449.27 569.65 459.05 563.02 468.02 565.3 475.26 564.84 488.09 559.88 497.61 546.52 501.61 539.83 502.22 546.01 508.87 544.12 517.53 536.92 525.39 518.53 527.75 501.23 526.76 495.91 525.83 491.26 537.43 485.06 567.89 485.41 578.21 508.62 586.69 526.81 593.53 548.03 596.73 559.35 599.2"/></g><g id="arm"><path class="cls-2" d="M611.86,628.64,604.93,516l8.56-12.06,4.39-10.63,2.92-20.39,5.25-7.57,6.93-7,12.5-7.06,6.32-13.72.21-9.21-11.23-11.08-7.31-3.07-2.49-1-16.93,12.11-.7,19.26,2.48,3.94-15,49.8-7.29,24.23.14,59.42-.47,12.84-11.68,4.55-3.64,0-1.1.33-11.44.92-6-1.32h-3.77l-28.77-5.65L513.11,590l4.8,252.64h107.6ZM625.44,424l5.29-.6,5.2,5.41,3.09,3.32,2.69,4.59-1.65,3.64-2.61,5.17-4,1L630.82,436l-5.92-8.89Z"/></g><g id="hand"><path class="cls-2" d="M518.53,527.76l18.4-2.37,7.19-7.86,1.89-8.66-6.18-6.65,6.69-.61,13.36-4,5-9.52.47-12.83L563,468l6.63-9,1.33-9.77-7.86-7.2-23.51-10.43-13.44-7.16,6.65-6.18L535.26,408l-3.69-8.63-14.3-10.22-6.09-2.22-18-6.53-5.31-.8-5.83,3.66L476.81,388l-3.28,10.07,5.39,12,15.12,7.7-12.29-2.14L477.87,419l-5.48,14,.05,8.37,5.92,7.49,14,5.48-11.15.08-3.61,2.54-4.39,10.63-.49,10,3.42,9.47,11.74,3.82-8.9,4.52-3.86,6.17-2.71,11.18,10.4,10.8,13.12,2.29,5.32.93Zm21.08-76.17,3.71-8.54,5.45,1.77,8.24,1.76,7.55,2.46,1.71,4.73-1.77,6.85-2.61,5.17-9.48.63-10.47-.62-3.94-5Zm.32,24.68,4.45-.87,5.73.94,7.82,1.62,1.29,4.59.18,5.16-2.76,5.6-6.95,2.84-11.17-1.32-1.87-8.49Zm-3.29,28.62,2.68,4.58-.93,5.73L528,518.76l-8.08,2-1.86-7.1.23-6.42,3.33-3.09,4.59-1.29Zm-30-106.4,4.59-2.68,4.18,0,7.42,2.87,4.77,3.88,1.55,2.36,1.16,6.41-3.46,4.9-4.59,1.29-10.89-2.16-5.61-4.14L504,405.06Z"/></g><path id="beer-6" data-name="beer" class="cls-4" d="M622,338.59l31,9,1-1.63.68.2,5-39.65-5.24-11-3-9.32L644,280.53l-6.45-5.81-12.89-7.44-7.53.33-7.12-.93-3.36-2.48-7-1.35-5.18-2.61-6-1.49-12.29-2.15-12.39,2.46-3.06,2.25-4.88-.66-7.53.33-6.25,4.93-8.33,4.24L529.56,273s-1.92,4.48-1.63,6.43S526.09,295,526.09,295l-6.33,12.32L558,320.59Z"/><polygon id="fingernail-3" data-name="fingernail" class="cls-3" points="552.41 466.42 561.89 465.8 564.5 460.62 566.27 453.77 564.56 449.04 557.01 446.58 548.77 444.82 543.32 443.05 539.61 451.58 538 460.8 541.94 465.8 552.41 466.42"/><polygon id="fingernail-4" data-name="fingernail" class="cls-3" points="549.69 496.15 556.64 493.31 559.39 487.71 559.22 482.55 557.93 477.96 550.11 476.34 544.38 475.4 539.92 476.27 536.65 486.34 538.52 494.83 549.69 496.15"/><polygon id="fingernail-5" data-name="fingernail" class="cls-3" points="521.57 504.16 518.25 507.25 518.01 513.67 519.88 520.77 527.95 518.76 538.39 515.2 539.32 509.48 536.64 504.89 526.16 502.87 521.57 504.16"/><polygon id="fingernail-6" data-name="fingernail" class="cls-3" points="511.37 415.33 522.26 417.49 526.86 416.2 530.31 411.3 529.15 404.89 527.6 402.53 522.83 398.65 515.41 395.78 511.23 395.81 506.64 398.49 504.04 405.06 505.76 411.19 511.37 415.33"/><polygon id="fingernail-7" data-name="fingernail" class="cls-3" points="633.41 446.55 637.45 445.55 640.06 440.37 641.71 436.73 639.02 432.14 635.93 428.82 630.73 423.41 625.44 424.01 624.9 427.08 630.82 435.97 633.41 446.55"/></g></g></svg>