<svg id="Layer_1" data-name="Layer 1" xmlns="http://www.w3.org/2000/svg" viewBox="0 0 659.66 842.65"><defs><style>.cls-1{fill:#504ecc;}.cls-2{fill:#f3ff7a;}.cls-3{fill:#faffc7;}.cls-4{fill:#d22b49;}.cls-5{fill:#9291d5;}</style></defs><path id="C" class="cls-1" d="M796.37,136.14a38.92,38.92,0,0,1-1.07,8.21,68.94,68.94,0,0,1-3.1,10,81.89,81.89,0,0,1-4.86,10.29,50.56,50.56,0,0,1-6.5,9.22,33.16,33.16,0,0,1-8,6.63,17.94,17.94,0,0,1-9.22,2.52,29,29,0,0,1-3-.19,13.94,13.94,0,0,1-3.66-.88,8.42,8.42,0,0,1-3.16-2.08,5.11,5.11,0,0,1-1.32-3.66,9.59,9.59,0,0,1,.82-3.54,19.16,19.16,0,0,1,3-4.67q2.26-2.52,4.92-6a62.43,62.43,0,0,0,4.8-7.26,60.19,60.19,0,0,0,3.6-7.45,18.23,18.23,0,0,0,1.45-6.56,9.33,9.33,0,0,0-1.71-5.87c-1.13-1.48-3.09-2.21-5.87-2.21q-5.43,0-12.25,3.53A81.48,81.48,0,0,0,737,145.86a164.61,164.61,0,0,0-15.15,14.46Q714.17,168.59,707,178T693.4,197.57a201.39,201.39,0,0,0-11.11,20.07,131.53,131.53,0,0,0-7.45,19.07,58.91,58.91,0,0,0-2.71,16.6q0,9.22,4.92,14.77t16.29,5.56q5.31,0,15.78-4.1a125.57,125.57,0,0,0,17.49-8.21q7-4.09,14.14-9.09t13.58-9.6q6.43-4.6,11.74-8.33a55.53,55.53,0,0,1,8.71-5.24,2.34,2.34,0,0,1,1.51-.51c1.27,0,2.13,1,2.59,3.1a32.29,32.29,0,0,1,.7,7,29.79,29.79,0,0,1-.57,5.24,18,18,0,0,1-3.6,7.13c-.93,1.09-2.65,3-5.18,5.56s-5.68,5.55-9.47,8.83-8.12,6.7-13,10.23a123.4,123.4,0,0,1-15.85,9.72,143.5,143.5,0,0,1-22,8.72q-13.44,4.29-23.42,4.29a62.59,62.59,0,0,1-20.07-2.84,36.72,36.72,0,0,1-13.64-7.89,30.22,30.22,0,0,1-7.76-12.06,45.79,45.79,0,0,1-2.47-15.34A86.58,86.58,0,0,1,645.74,238a150,150,0,0,1,8.78-24.11,205.7,205.7,0,0,1,13.38-24.5,228.24,228.24,0,0,1,17-23.42,211.6,211.6,0,0,1,19.76-20.77,161.16,161.16,0,0,1,21.47-16.66,111.06,111.06,0,0,1,22.09-11.12,63.76,63.76,0,0,1,21.85-4,41.52,41.52,0,0,1,10.1,1.2,23.81,23.81,0,0,1,8.4,3.85,18.5,18.5,0,0,1,5.68,7A24.61,24.61,0,0,1,796.37,136.14Z" transform="translate(-586.04 -113.41)"/><path id="h" class="cls-1" d="M756.47,275.66q3-6.44,6.95-14.33t7.89-15.66q4-7.75,7.51-14.77T784.75,219L826.42,137a10.56,10.56,0,0,1,2.34-3.15,20,20,0,0,1,3.6-2.72,19.16,19.16,0,0,1,4.29-1.89,15.54,15.54,0,0,1,4.54-.69c3.71,0,6.27.69,7.71,2.08a6.84,6.84,0,0,1,2.14,5.11,14.28,14.28,0,0,1-1.39,5.87,39.49,39.49,0,0,1-3.15,5.75q-5.57,9.47-10.67,19.13T825.6,186q-5.11,9.8-10.29,19.45t-10.86,19.12q3.54-3.41,7.51-7.07a65.72,65.72,0,0,1,8.65-6.69,48.55,48.55,0,0,1,10.23-5,37.16,37.16,0,0,1,12.37-2,37.69,37.69,0,0,1,7.71.76,19.81,19.81,0,0,1,6.44,2.46,12.32,12.32,0,0,1,4.41,4.67,14.76,14.76,0,0,1,1.65,7.26,30.49,30.49,0,0,1-1.71,10.42,46.65,46.65,0,0,1-4.35,9,79.85,79.85,0,0,1-5.81,8.08q-3.16,3.85-6,7.83a56.67,56.67,0,0,0-4.92,8.27,27.32,27.32,0,0,0-2.59,9.34,1.79,1.79,0,0,1-.07.51,2.2,2.2,0,0,0-.06.5c0,1.69.57,2.74,1.71,3.16a12.67,12.67,0,0,0,4.35.63,23,23,0,0,0,7.32-1.32,49.16,49.16,0,0,0,7.9-3.54,88.94,88.94,0,0,0,7.95-5q4-2.77,7.58-5.68c2.4-1.93,4.6-3.81,6.63-5.62s3.74-3.39,5.17-4.73a8.21,8.21,0,0,1,2.4-1.52,6.58,6.58,0,0,1,2.4-.5,5.07,5.07,0,0,1,3.85,1.7,6.55,6.55,0,0,1,1.58,4.61,13.12,13.12,0,0,1-1.83,6.06,22.54,22.54,0,0,1-6.25,6.82q-6.95,6.06-14.14,11.62A138.64,138.64,0,0,1,860,289.42a82,82,0,0,1-14.59,6.82,43.16,43.16,0,0,1-14.2,2.53q-9,0-14.39-4.11t-5.43-12.94a33.49,33.49,0,0,1,2.21-12.18A71.26,71.26,0,0,1,819,258.43q3.22-5.37,6.89-10.36a109.24,109.24,0,0,0,6.44-9.78,24.32,24.32,0,0,0,2.33-4,9.55,9.55,0,0,0,.82-4,4.65,4.65,0,0,0-1-3.09,3.88,3.88,0,0,0-3.15-1.2,27,27,0,0,0-13.77,3.66A50.6,50.6,0,0,0,806,239a100,100,0,0,0-9.85,12.44q-4.54,6.77-8.46,12.94c-1.18,1.86-2.38,4-3.6,6.38s-2.48,4.86-3.79,7.39-2.67,5-4.1,7.51a53.13,53.13,0,0,1-4.48,6.63,23.32,23.32,0,0,1-4.93,4.67,9.35,9.35,0,0,1-5.36,1.77,8.86,8.86,0,0,1-6.82-2.59,9.19,9.19,0,0,1-2.4-6.5,20.61,20.61,0,0,1,1-6.13A60.29,60.29,0,0,1,756.47,275.66Z" transform="translate(-586.04 -113.41)"/><path id="e" class="cls-1" d="M938.67,203.69q10.47,0,15.65,5.05t5.18,14a25.79,25.79,0,0,1-2.78,11.11q-2.78,5.81-9.59,11.8a102,102,0,0,1-18.25,12.25,213.78,213.78,0,0,1-28.6,12.56,8.22,8.22,0,0,0,3.92,5.75,16.07,16.07,0,0,0,8.71,2.08,50.39,50.39,0,0,0,12.44-1.7,102.51,102.51,0,0,0,13.13-4.36q6.49-2.65,12.69-5.74t11.17-5.87c3.33-1.85,6.1-3.45,8.34-4.8a51,51,0,0,1,4.48-2.53,5.08,5.08,0,0,1,2.08-.88,13.84,13.84,0,0,1,1.71-.13,4.35,4.35,0,0,1,2.52.7,7.21,7.21,0,0,1,1.71,1.64,5.55,5.55,0,0,1,.94,2,8.09,8.09,0,0,1,.26,1.83,17.36,17.36,0,0,1-.26,2.71,8.06,8.06,0,0,1-1.89,3.6q-.63.63-4.23,3.41t-9.28,6.57q-5.69,3.78-13.2,8a154.32,154.32,0,0,1-15.9,7.77,125.55,125.55,0,0,1-17.49,5.87,71.74,71.74,0,0,1-17.93,2.34A29.45,29.45,0,0,1,880.78,288a34.58,34.58,0,0,1-6.25-11.36,42.15,42.15,0,0,1-2.15-13.51,38.09,38.09,0,0,1,2.15-11.93,62.49,62.49,0,0,1,6.18-13.07,80.19,80.19,0,0,1,9.92-12.81,72.48,72.48,0,0,1,13.19-11,68.15,68.15,0,0,1,16.1-7.7A59.2,59.2,0,0,1,938.67,203.69Zm-4.55,17.43A5.44,5.44,0,0,0,933,221h-1.14a21.39,21.39,0,0,0-9,1.89,30.39,30.39,0,0,0-7.64,5,39.2,39.2,0,0,0-6.19,7q-2.71,3.92-4.86,7.76a70,70,0,0,0-3.6,7.39c-1,2.36-1.7,4.34-2.21,5.93q4.43-2.27,9.15-5.17t8.91-5.56c2.77-1.77,5.19-3.36,7.26-4.8s3.51-2.4,4.35-2.9q5.69-3.54,7.83-6.63a9.94,9.94,0,0,0,2.15-5.37,4,4,0,0,0-1.2-3A5.18,5.18,0,0,0,934.12,221.12Z" transform="translate(-586.04 -113.41)"/><path id="e-2" data-name="e" class="cls-1" d="M1027.56,203.69q10.47,0,15.65,5.05t5.18,14a25.79,25.79,0,0,1-2.78,11.11q-2.77,5.81-9.59,11.8a102,102,0,0,1-18.25,12.25,213.78,213.78,0,0,1-28.6,12.56,8.22,8.22,0,0,0,3.92,5.75,16.07,16.07,0,0,0,8.71,2.08,50.39,50.39,0,0,0,12.44-1.7,102.51,102.51,0,0,0,13.13-4.36q6.5-2.65,12.69-5.74t11.17-5.87q5-2.77,8.33-4.8t4.49-2.53a5,5,0,0,1,2.08-.88,13.83,13.83,0,0,1,1.7-.13,4.41,4.41,0,0,1,2.53.7,7,7,0,0,1,1.7,1.64,5.42,5.42,0,0,1,1,2,8,8,0,0,1,.25,1.83,17.21,17.21,0,0,1-.25,2.71,8.06,8.06,0,0,1-1.89,3.6q-.63.63-4.23,3.41t-9.28,6.57q-5.68,3.78-13.2,8a153.5,153.5,0,0,1-15.91,7.77,125.42,125.42,0,0,1-17.48,5.87,71.74,71.74,0,0,1-17.93,2.34A29.45,29.45,0,0,1,969.67,288a34.58,34.58,0,0,1-6.25-11.36,42.15,42.15,0,0,1-2.15-13.51,38.09,38.09,0,0,1,2.15-11.93,62.49,62.49,0,0,1,6.18-13.07,80.11,80.11,0,0,1,9.91-12.81,72.89,72.89,0,0,1,13.2-11,68.15,68.15,0,0,1,16.1-7.7A59.2,59.2,0,0,1,1027.56,203.69ZM1023,221.12a5.44,5.44,0,0,0-1.13-.13h-1.14a21.47,21.47,0,0,0-9,1.89,30.76,30.76,0,0,0-7.64,5,39.54,39.54,0,0,0-6.18,7q-2.72,3.92-4.86,7.76a70,70,0,0,0-3.6,7.39q-1.46,3.54-2.21,5.93c2.94-1.51,6-3.24,9.15-5.17s6.13-3.79,8.9-5.56,5.2-3.36,7.26-4.8,3.52-2.4,4.36-2.9q5.68-3.54,7.83-6.63a9.94,9.94,0,0,0,2.15-5.37,4,4,0,0,0-1.2-3A5.21,5.21,0,0,0,1023,221.12Z" transform="translate(-586.04 -113.41)"/><path id="r" class="cls-1" d="M1103.82,222a114.63,114.63,0,0,1,10.16-5.56c3.5-1.68,6.88-3.13,10.17-4.35a83,83,0,0,1,9.4-2.91,35.13,35.13,0,0,1,8-1.07c3.79,0,6.71.91,8.78,2.72s3.09,4.86,3.09,9.15c0,.93,0,1.92-.13,3a25.53,25.53,0,0,1-.5,3.34A20.78,20.78,0,0,1,1149,234a114.67,114.67,0,0,1-7.39,9.22q-4.23,4.8-9.09,9.66l-9,9q-4.11,4.1-6.82,7.13t-2.71,4.17a5.26,5.26,0,0,0,.12,1.38c.09.26.46.38,1.14.38q6.81-2.89,15.21-7t16.73-8.4q8.34-4.29,15.79-8.4t12.62-7.13a16.39,16.39,0,0,1,2.34-1.07,6.31,6.31,0,0,1,2.21-.45A5.16,5.16,0,0,1,1184,244a5.46,5.46,0,0,1,1.51,4,12.45,12.45,0,0,1-2.46,6.63,31.07,31.07,0,0,1-8.27,7.76l-9.91,6.25q-5.49,3.48-11.49,7.2t-12.12,7.26q-6.13,3.54-11.81,6.31a92,92,0,0,1-10.67,4.49,27.53,27.53,0,0,1-8.65,1.7q-8.72,0-13.07-4.17a14.18,14.18,0,0,1-4.35-10.73,7,7,0,0,1,.12-1.51,40.68,40.68,0,0,1,3.29-10.74,78,78,0,0,1,5.43-9.84c2-3.12,4.12-6.08,6.31-8.91s4.19-5.47,6-8a69.89,69.89,0,0,0,4.48-6.88,12,12,0,0,0,1.77-5.81,3.34,3.34,0,0,0-.26-1.26,1.08,1.08,0,0,0-1.13-.63,18.86,18.86,0,0,0-5,1.13,60.91,60.91,0,0,0-7.39,3,55.82,55.82,0,0,0-7.45,4.36,16,16,0,0,0-5.05,5.24q-2,3.54-4.67,9c-1.76,3.62-3.6,7.41-5.49,11.37s-3.72,7.87-5.49,11.74-3.28,7.2-4.55,10a24.61,24.61,0,0,1-4,6.57,28.1,28.1,0,0,1-5.37,4.92,27.11,27.11,0,0,1-5.94,3.16,15.89,15.89,0,0,1-5.55,1.14,6.69,6.69,0,0,1-4.61-1.52c-1.14-1-1.7-2.65-1.7-4.92a16.85,16.85,0,0,1,2.27-8.08q2.26-4.29,4.61-9.35t5.36-11.55q3-6.5,7-14.9t9.41-19.38a13,13,0,0,1-3-3.72,11.44,11.44,0,0,1-1.2-5.5,10,10,0,0,1,4.67-8.84,16.54,16.54,0,0,1,5-2.08,25.3,25.3,0,0,1,6-.69,38.33,38.33,0,0,1,6.56.57,24.69,24.69,0,0,1,5.87,1.7,13.52,13.52,0,0,1,4.23,2.78,5.19,5.19,0,0,1,1.65,3.79,2.92,2.92,0,0,1-.26,1l-.57,1.38c-.21.51-.4,1-.56,1.39a3,3,0,0,0-.26,1c0,.17,0,.26.13.26h.13Z" transform="translate(-586.04 -113.41)"/><path id="s" class="cls-1" d="M1202.43,224.52a74.55,74.55,0,0,1,13.76,9.22,65.5,65.5,0,0,1,10.29,10.92,48,48,0,0,1,6.44,11.68,33.26,33.26,0,0,1,2.21,11.62,21.75,21.75,0,0,1-4.1,12.94,35.25,35.25,0,0,1-10.73,9.72,54.38,54.38,0,0,1-15.16,6.06,72.21,72.21,0,0,1-17.23,2.09,55.45,55.45,0,0,1-12.75-1.46,39.6,39.6,0,0,1-11.3-4.48,31,31,0,0,1-8.78-7.76,28.85,28.85,0,0,1-5.17-11.3,7.13,7.13,0,0,1-.26-1.64,8.14,8.14,0,0,1,2.4-5.88,7.29,7.29,0,0,1,5.3-2.46,10.93,10.93,0,0,1,3.1.51,4.16,4.16,0,0,1,2.59,2.27,18,18,0,0,0,4.61,5.43,31.35,31.35,0,0,0,6.62,4.1,38.87,38.87,0,0,0,7.77,2.65,35.09,35.09,0,0,0,8,.95,38.47,38.47,0,0,0,7.76-.76,21.5,21.5,0,0,0,6.57-2.4,13,13,0,0,0,4.48-4.16,11.15,11.15,0,0,0,1.64-6.19,24.85,24.85,0,0,0-2.9-11.87,42.65,42.65,0,0,0-7.52-10,71,71,0,0,0-10.48-8.58q-5.86-4-11.67-7.64a8.29,8.29,0,0,1-1.9-2.21,6.5,6.5,0,0,1-1.26-3.72,3.54,3.54,0,0,1,.76-2.4,62.41,62.41,0,0,1,4.67-5.43,51,51,0,0,1,5.68-5.12,28.25,28.25,0,0,1,6.57-3.78,19,19,0,0,1,7.32-1.46,17.3,17.3,0,0,1,5.18.76,14.21,14.21,0,0,1,4,2,10.24,10.24,0,0,1,2.58,2.65,5,5,0,0,1,1,2.71,7.07,7.07,0,0,1-.88,3.41,14.41,14.41,0,0,1-2.34,3.16,39.17,39.17,0,0,1-3.28,3Q1204.2,223.14,1202.43,224.52Z" transform="translate(-586.04 -113.41)"/><g id="beer"><polygon class="cls-2" points="138.46 395.4 133.16 413.93 129.59 416.91 127.87 494.21 105.81 563.02 118.98 572.07 136.63 577.74 148.16 578.9 169.33 582.42 188.74 581.54 213.44 580.66 216.97 570.96 220.5 540.08 219.67 527.61 214.32 526.85 197.56 522.44 180.8 514.5 176.39 504.79 177.27 495.97 185.21 491.56 179.04 488.91 167.57 480.98 165.8 470.39 169.33 458.04 173.74 451.86 170.21 441.28 171.98 431.57 181.68 427.16 207.27 424.51 222.26 421.87 217.85 413.93 218.73 403.34 224.91 396.29 241.67 390.99 248.15 390.77 255.78 361 264.61 312.48 125.05 307.65 120.81 340.71 121.69 368.94 123.41 378.87 126.11 378.64 138.46 395.4"/></g><g id="arm"><path class="cls-1" d="M769.49,696.72l-14.11-.88-29.12-3.53-3.58-1.15-6.12-.61L706,686.14l-.94-.66-3.47-1.11-9.7-7.94,3.53-12.35,11.47-42.34L713,584.68l.88-25.58V531.75l1.72-1.43,3.58-3,5.29-18.52-12.35-16.76-2.69.22-7.9.66L687.45,500l-2.65,8.82,1.77,15,9.7,10.59,4.41,8.82,2.65,8.82-3.53,20.29.88,11.47,4.41,14.12-41.46,105L586,956.07H704.37Zm-70-173.64L696,520.87l-.88-5.73-.44-4,4-3.53,4-2.21,6.62-3.53,4.85,2.21-.44,3.09-8.38,6.61Z" transform="translate(-586.04 -113.41)"/></g><g id="hand"><path class="cls-1" d="M811,509.7l-6.17,7.06-.88,10.58,4.41,7.94-15,2.65-25.58,2.65L758,545l-1.76,9.7,3.53,10.59-4.41,6.17-3.53,12.35,1.76,10.59,11.47,7.94,6.18,2.64-7.94,4.42-.89,8.82,4.41,9.7,16.77,7.94,16.76,4.41,5.34.77,13.18,1.88,13.24-7.06.88-11.47-1.77-7-7-7.06h12.35l6.17-7.94,2.65-9.71-.88-11.46-2.65-3.53-10.59-3.53,15-.88,7.94-5.3,2.65-7.94-.89-15-2.64-4.41L841,538.81l16.76-2.65,8.82-9.7V515.87L863,509.7l-4.41-5.29-5.29-.89-19.1.66-6.48.23Zm-49.84,41,3.09-4h7.94l8.38.88h5.73l.88,9.27-1.32,9.26-5.29,3.53L770.37,567l-8.82-3.53-.88-5.73Zm2.65,45.43L758,591.3l-.88-6.17,1.77-4.86,2.64-4,7.94.89,5.74.88,4,2.2v10.59l-4.42,7.5Zm24.7,26.47-4,6.17-7.06-4.41-8.82-6.61.88-5.74,4-3.53,10.59,1.33,4,2.64,2.2,4Zm46.46-106,.44,7.06L831.83,529l-6.62,2.21-11-1.33-4-2.64-1.77-5.74,3.09-5.73,2.2-1.76,5.74-2.21,7.94-.44,4,1.32Z" transform="translate(-586.04 -113.41)"/></g><path id="beer-2" data-name="beer" class="cls-3" d="M743.91,418.84l67,3.52,39.7,3.53-2.2-13.67s2.2-13.67,3.08-15.44.45-6.62.45-6.62l-3.09-4-6.62-6.61L837.86,373l-7.06-2.64-4.85-.89-2.2-3.08-11-6.18-12.35-1.76-6.18-.45-5.73.89L781.4,358l-4,1.33L770.37,358l-7-2.64-14.56,3.09-7.94,3.52L732,365,726.26,373l-8.38,8.82L710.39,421l.7,0,.18-1.35Z" transform="translate(-586.04 -113.41)"/><polygon id="fingernail" class="cls-4" points="184.33 453.63 194.47 456.27 199.77 452.75 201.09 443.48 200.21 434.22 194.47 434.22 186.09 433.34 178.15 433.34 175.07 437.31 174.63 444.36 175.51 450.1 184.33 453.63"/><polygon id="fingernail-2" data-name="fingernail" class="cls-4" points="193.15 477.45 193.15 466.86 189.18 464.65 183.45 463.77 175.51 462.89 172.86 466.86 171.1 471.71 171.98 477.89 177.71 482.74 188.74 484.94 193.15 477.45"/><polygon id="fingernail-3" data-name="fingernail" class="cls-4" points="198 496.41 187.42 495.09 183.45 498.62 182.56 504.35 191.39 510.97 198.44 515.38 202.41 509.2 204.18 503.03 201.97 499.06 198 496.41"/><polygon id="fingernail-4" data-name="fingernail" class="cls-4" points="233.44 398.35 227.7 400.55 225.5 402.32 222.41 408.05 224.17 413.78 228.14 416.43 239.17 417.75 245.78 415.55 249.31 410.26 248.87 403.2 245.34 399.23 241.37 397.9 233.44 398.35"/><polygon id="fingernail-5" data-name="fingernail" class="cls-4" points="127.57 393.78 128.01 390.7 123.16 388.49 116.55 392.02 112.58 394.23 108.61 397.75 109.05 401.72 109.93 407.46 113.46 409.66 119.19 400.4 127.57 393.78"/><g id="beer-3" data-name="beer"><polygon class="cls-2" points="390.01 619.64 408.49 618.09 423.35 612.24 417.37 540.23 433.11 464.53 430.3 460.82 429.31 441.58 445.12 428.03 447.7 428.85 451.61 419.57 458.83 392.26 462.14 359.1 325.09 332.36 322.75 381.62 323.48 412.35 329.75 414.03 344.88 422.96 349.31 431.23 347.79 441.74 341.7 448.48 355.71 454.44 380.04 462.78 388.5 469.26 388.04 479.12 382.21 488.63 385.12 495.64 385.78 508.47 381.67 518.39 368.71 523.54 362.1 524.73 368.84 530.82 367.71 539.61 361.23 548.07 343.11 552.03 325.78 552.55 320.41 552.09 316.79 564.05 313.27 594.93 314.52 605.18 338.39 611.6 357.1 616.84 378.52 618.17 390.01 619.64"/></g><g id="arm-2" data-name="arm"><path class="cls-5" d="M1030.94,757.79l-16.75-111.62,7.48-12.76,3.44-11,1.14-20.56,4.56-8,6.29-7.6,11.84-8.13,5.1-14.22-.6-9.19-12.16-10-7.54-2.42-2.57-.83L1015.36,555l1,19.24,2.81,3.71,1.36,1.78-6.17,26.65-4.9,25.12L1007.11,669l1.63,43.84.66,12.83-11.24,5.55-3.63.3-1.07.42-11.31,1.92-6.1-.79-3.75.32-29.16-3.12-13.95-2.32,17.48,228.14h107.25Zm-4.35-205,5.23-1.06,5.65,4.93,3.37,3,3.07,4.34-1.32,3.76-2.15,5.39-3.94,1.36L1033,564.2l-6.67-8.34Z" transform="translate(-586.04 -113.41)"/></g><g id="hand-2" data-name="hand"><path class="cls-5" d="M929.15,665.44l18.12-4,6.49-8.46,1.12-8.79-6.74-6.09,6.61-1.18,13-5.16,4.1-9.91-.65-12.83-2.91-7,5.82-9.52.47-9.85-8.46-6.49-24.33-8.34-14-6,6.09-6.75,1.53-10.51-4.43-8.27-15.14-8.93-6.26-1.68-18.47-4.94-5.35-.34-5.49,4.17-4.83,5.22L873,540.18l6.41,11.45L895.15,558l-12.43-1.06-3.58,3.7L874.91,575l.79,8.33,6.54,6.95,14.41,4.24-11.11,1.05-3.37,2.84-3.44,11,.39,10.05,4.23,9.12,12,2.79-8.47,5.28-3.31,6.48-1.72,11.37,11.3,9.86,13.27,1.13,5.38.46Zm35-37.64-6.67,3.44-11.25-.34-2.6-8.3L946,612.29l4.37-1.26,5.78.44,7.94.93,1.68,4.46.63,5.12ZM943.5,587.72l3-8.82,5.59,1.29,8.36,1,7.74,1.79,2.11,4.56-1.16,7-2.15,5.39-9.39,1.45-10.48.3-4.37-4.63Zm-13.38,53.95,4.47-1.68,10.61,1.09,3.07,4.34-.43,5.78-10.09,4.46-7.87,2.71-2.47-6.91-.33-6.42Zm-23.87-91.23-2.25-6,2-6.78,4.34-3.07,4.16-.4,7.64,2.22,5.09,3.44,1.75,2.22,1.72,6.28-3,5.19-4.46,1.68-11-1.19Z" transform="translate(-586.04 -113.41)"/></g><path id="beer-4" data-name="beer" class="cls-3" d="M1016.72,463l31.6,8.21-.13,1.35.7.14,1.53-39.94-6.17-10.48-3.8-9-7.9-5-6.94-5.23-13.49-6.29-7.47,1-7.17-.3-3.57-2.18-7.08-.73-5.39-2.15-6.11-1-12.43-1.06-12.14,3.53-2.84,2.51L943,396.1l-7.47,1-5.79,5.45-7.94,5-3.9,3.17s-1.52,4.63-1.06,6.55-.47,15.73-.47,15.73l-5.23,12.83,39.47,5.5Z" transform="translate(-586.04 -113.41)"/><g id="fingernail-6" data-name="fingernail"><polygon class="cls-1" points="371.5 487.97 380.89 486.52 383.04 481.13 384.2 474.15 382.09 469.59 374.36 467.8 365.99 466.77 360.4 465.48 357.46 474.31 356.66 483.63 361.02 488.26 371.5 487.97"/></g><g id="fingernail-7" data-name="fingernail"><polygon class="cls-1" points="378.01 498.98 370.08 498.05 364.29 497.62 359.93 498.87 357.54 509.19 360.15 517.49 371.39 517.82 378.07 514.39 380.32 508.57 379.69 503.44 378.01 498.98"/></g><g id="fingernail-8" data-name="fingernail"><polygon class="cls-1" points="341.36 538.04 343.84 544.95 351.71 542.25 361.79 537.79 362.23 532 359.15 527.67 348.54 526.58 344.08 528.26 341.04 531.63 341.36 538.04"/></g><g id="fingernail-9" data-name="fingernail"><polygon class="cls-1" points="337.2 441.86 341.66 440.18 344.67 434.99 342.95 428.7 341.2 426.49 336.11 423.05 328.48 420.83 324.31 421.22 319.98 424.3 317.96 431.07 320.2 437.02 326.15 440.66 337.2 441.86"/></g><g id="fingernail-10" data-name="fingernail"><polygon class="cls-1" points="450.46 461.1 454.39 459.75 456.54 454.36 457.87 450.59 454.79 446.26 451.42 443.22 445.77 438.29 440.55 439.34 440.28 442.45 446.96 450.79 450.46 461.1"/></g><g id="beer-5" data-name="beer"><polygon class="cls-2" points="559.35 599.2 577.89 599.27 593.21 594.74 593.54 522.48 615.83 448.45 613.35 444.51 614.05 425.25 630.98 413.14 633.47 414.19 638.18 405.28 647.76 378.7 653.96 345.96 519.76 307.36 513.13 356.22 511.18 386.89 517.27 389.11 531.57 399.33 535.26 407.96 532.82 418.3 526.17 424.48 539.61 431.64 563.12 442.07 570.98 449.27 569.65 459.05 563.02 468.02 565.3 475.26 564.84 488.09 559.88 497.61 546.52 501.61 539.83 502.22 546.01 508.87 544.12 517.53 536.92 525.39 518.53 527.75 501.23 526.76 495.91 525.83 491.26 537.43 485.06 567.89 485.41 578.21 508.62 586.69 526.81 593.53 548.03 596.73 559.35 599.2"/></g><g id="arm-3" data-name="arm"><path class="cls-1" d="M1197.91,742.06,1191,629.4l8.57-12.06,4.38-10.63,2.93-20.39,5.25-7.56,6.92-7,12.5-7.06,6.32-13.72.22-9.2-11.24-11.08-7.3-3.07-2.49-1.05-16.93,12.12-.71,19.25,2.48,3.94,1.19,1.89-8.46,26-7.08,24.6-5.6,37.14-2.2,43.82-.47,12.83-11.68,4.55h-3.64l-1.1.32-11.43.92-6-1.31-3.77,0L1112.85,707l-13.69-3.53L1104,956.07h107.61Zm13.57-204.64,5.3-.59,5.2,5.4,3.09,3.33,2.68,4.58-1.65,3.64-2.61,5.18-4,1-2.58-10.58L1211,540.5Z" transform="translate(-586.04 -113.41)"/></g><g id="hand-3" data-name="hand"><path class="cls-1" d="M1104.57,641.17l18.4-2.36,7.2-7.86,1.89-8.67-6.19-6.65,6.7-.6,13.36-4,5-9.52.47-12.84-2.28-7.24,6.63-9,1.32-9.77-7.86-7.2-23.51-10.44-13.44-7.16,6.65-6.18,2.44-10.34-3.69-8.62-14.3-10.22-6.09-2.22-18-6.54L1074,493l-5.83,3.67-5.27,4.78-3.27,10.06,5.38,12,15.12,7.71L1067.79,529l-3.88,3.38-5.48,14,.06,8.37,5.91,7.49,14,5.48-11.16.08-3.61,2.54L1059.23,581l-.48,10,3.41,9.46,11.74,3.82-8.89,4.53-3.86,6.16-2.71,11.18L1068.83,637l13.12,2.29,5.32.93ZM1125.66,565l3.7-8.54,5.45,1.78,8.25,1.75,7.55,2.46,1.7,4.73-1.76,6.85-2.62,5.18-9.48.62-10.46-.62-3.94-5Zm.31,24.69,4.46-.87,5.72.93,7.83,1.62,1.28,4.6.18,5.16-2.75,5.6-7,2.83-11.16-1.31-1.88-8.5Zm-3.29,28.61,2.69,4.59-.94,5.72L1114,632.18l-8.08,2-1.86-7.11.23-6.41,3.33-3.1,4.59-1.28Zm-30-106.4,4.58-2.68,4.19,0,7.41,2.88,4.77,3.87,1.55,2.36,1.16,6.41-3.45,4.91-4.59,1.28-10.9-2.15-5.61-4.15-1.72-6.12Z" transform="translate(-586.04 -113.41)"/></g><path id="beer-6" data-name="beer" class="cls-3" d="M1209.49,447.1,1240.26,458l-.26,1.33.69.2,5-39.65-5.24-11-3-9.33L1230,394l-6.46-5.82-12.88-7.44-7.53.33-7.13-.92-3.36-2.49-7-1.34-5.18-2.62-6-1.49L1162.22,370l-12.4,2.45-3,2.26-4.89-.67-7.53.34-6.24,4.92-8.34,4.25-4.17,2.82s-1.92,4.47-1.62,6.42-1.85,15.64-1.85,15.64l-6.33,12.32,38.85,8.93Z" transform="translate(-586.04 -113.41)"/><g id="fingernail-11" data-name="fingernail"><polygon class="cls-5" points="552.41 466.42 561.89 465.8 564.5 460.62 566.27 453.77 564.56 449.04 557.01 446.58 548.77 444.82 543.32 443.05 539.61 451.58 538 460.8 541.94 465.8 552.41 466.42"/></g><g id="fingernail-12" data-name="fingernail"><polygon class="cls-5" points="549.69 496.15 556.64 493.31 559.39 487.71 559.22 482.55 557.93 477.96 550.11 476.34 544.38 475.4 539.92 476.27 536.65 486.34 538.52 494.83 549.69 496.15"/></g><g id="fingernail-13" data-name="fingernail"><polygon class="cls-5" points="521.57 504.16 518.25 507.25 518.01 513.67 519.88 520.77 527.95 518.76 538.39 515.2 539.32 509.48 536.64 504.89 526.16 502.87 521.57 504.16"/></g><g id="fingernail-14" data-name="fingernail"><polygon class="cls-5" points="511.37 415.33 522.26 417.49 526.86 416.2 530.31 411.3 529.15 404.89 527.6 402.53 522.83 398.65 515.41 395.78 511.23 395.81 506.64 398.49 504.04 405.06 505.76 411.19 511.37 415.33"/></g><g id="fingernail-15" data-name="fingernail"><polygon class="cls-5" points="633.41 446.55 637.45 445.55 640.06 440.37 641.71 436.73 639.02 432.14 635.93 428.82 630.73 423.41 625.44 424.01 624.9 427.08 630.82 435.97 633.41 446.55"/></g></svg>